<svg xmlns="http://www.w3.org/2000/svg" width="65" height="65" viewBox="0 0 65 65">
  <g id="그룹_8493" data-name="그룹 8493" transform="translate(-1342 -1195)">
    <circle id="타원_56" data-name="타원 56" cx="32.5" cy="32.5" r="32.5" transform="translate(1342 1195)" fill="#eceef0"/>
    <g id="구성_요소_24_7" data-name="구성 요소 24 – 7" transform="translate(1353 1205)">
      <g id="그룹_7722" data-name="그룹 7722" transform="translate(-2 -2)">
        <rect id="사각형_2169" data-name="사각형 2169" width="45" height="45" transform="translate(2 2)" fill="none"/>
        <g id="gauge_7688409" transform="translate(2 2)">
          <path id="패스_4357" data-name="패스 4357" d="M46.354,20.462A1,1,0,0,1,45.7,19.8a16.792,16.792,0,0,0-.888-2.148,1,1,0,0,1,0-.938,3.689,3.689,0,0,0-.628-4.349L40.639,8.813A3.691,3.691,0,0,0,36.28,8.19a1,1,0,0,1-.92,0,21.014,21.014,0,0,0-2.173-.9.994.994,0,0,1-.652-.658A3.689,3.689,0,0,0,29.014,4H23.986a3.692,3.692,0,0,0-3.523,2.645A1,1,0,0,1,19.8,7.3a16.756,16.756,0,0,0-2.148.888,1,1,0,0,1-.939,0,3.689,3.689,0,0,0-4.349.628L8.814,12.361a3.693,3.693,0,0,0-.624,4.358,1,1,0,0,1,0,.92,21,21,0,0,0-.9,2.174.993.993,0,0,1-.658.651A3.689,3.689,0,0,0,4,23.986v5.029a3.692,3.692,0,0,0,2.645,3.523A1,1,0,0,1,7.3,33.2a16.785,16.785,0,0,0,.888,2.148,1,1,0,0,1,0,.939,3.689,3.689,0,0,0,.628,4.349l3.548,3.548a3.693,3.693,0,0,0,4.358.623,1,1,0,0,1,.92,0,21.023,21.023,0,0,0,2.174.9.992.992,0,0,1,.651.658A3.689,3.689,0,0,0,23.986,49h5.029a3.692,3.692,0,0,0,3.523-2.645A1,1,0,0,1,33.2,45.7a16.788,16.788,0,0,0,2.148-.888,1,1,0,0,1,.939,0,3.685,3.685,0,0,0,4.349-.628l3.548-3.548a3.692,3.692,0,0,0,.623-4.358,1,1,0,0,1,0-.92,21.025,21.025,0,0,0,.9-2.174.992.992,0,0,1,.658-.651A3.689,3.689,0,0,0,49,29.014V23.986a3.692,3.692,0,0,0-2.646-3.524Zm1.039,8.552a2.07,2.07,0,0,1-1.475,1.976,2.609,2.609,0,0,0-1.729,1.663c-.432,1.445-1.669,2.906-.786,4.406A2.074,2.074,0,0,1,43.05,39.5L39.5,43.05a2.077,2.077,0,0,1-2.45.35c-1.511-.886-2.867.34-4.367.778a2.607,2.607,0,0,0-1.693,1.733,2.073,2.073,0,0,1-1.978,1.482H23.986a2.07,2.07,0,0,1-1.976-1.475,2.609,2.609,0,0,0-1.663-1.729c-1.1-.3-2.035-1.068-3.173-1.1a2.579,2.579,0,0,0-1.232.311A2.072,2.072,0,0,1,13.5,43.05L9.95,39.5a2.076,2.076,0,0,1-.35-2.45c.886-1.511-.34-2.867-.778-4.367A2.607,2.607,0,0,0,7.09,30.993a2.073,2.073,0,0,1-1.482-1.978V23.986a2.071,2.071,0,0,1,1.474-1.976,2.61,2.61,0,0,0,1.73-1.662c.43-1.444,1.669-2.906.785-4.406A2.074,2.074,0,0,1,9.95,13.5L13.5,9.95a2.077,2.077,0,0,1,2.449-.35c1.507.889,2.873-.343,4.367-.777a2.606,2.606,0,0,0,1.693-1.733,2.072,2.072,0,0,1,1.978-1.482h5.029A2.07,2.07,0,0,1,30.99,7.081a2.614,2.614,0,0,0,1.663,1.73c1.451.432,2.9,1.67,4.406.785a2.072,2.072,0,0,1,2.444.353L43.05,13.5a2.075,2.075,0,0,1,.35,2.45c-.886,1.513.34,2.866.778,4.367a2.6,2.6,0,0,0,1.733,1.692,2.074,2.074,0,0,1,1.482,1.979Z" transform="translate(-4 -4)" fill="#8a40be"/>
          <path id="패스_4358" data-name="패스 4358" d="M33.316,42.459H28.211a2.508,2.508,0,0,0-2.5,2.506v.851a2.508,2.508,0,0,0,2.5,2.506h5.105a2.508,2.508,0,0,0,2.5-2.506v-.851A2.508,2.508,0,0,0,33.316,42.459Zm.9,3.356a.9.9,0,0,1-.9.9H28.211a.9.9,0,0,1-.9-.9v-.851a.9.9,0,0,1,.9-.9h5.105a.9.9,0,0,1,.9.9Z" transform="translate(-8.264 -11.554)" fill="#8a40be"/>
          <path id="패스_4359" data-name="패스 4359" d="M39.072,17.547A15.267,15.267,0,0,0,17.479,39.136a.8.8,0,0,0,1.138,0l1.8-1.8A.8.8,0,1,0,19.286,36.2l-1.209,1.209a13.525,13.525,0,0,1-3.422-8.26h1.71a.8.8,0,1,0,0-1.608H14.657a13.584,13.584,0,0,1,3.424-8.257l1.205,1.205a.8.8,0,1,0,1.136-1.136l-1.205-1.205a13.585,13.585,0,0,1,8.256-3.424v1.708a.8.8,0,1,0,1.607,0V14.723a13.585,13.585,0,0,1,8.256,3.424l-1.205,1.205a.8.8,0,1,0,1.136,1.136l1.205-1.205A13.584,13.584,0,0,1,41.9,27.54H40.188a.8.8,0,1,0,0,1.608H41.9a13.525,13.525,0,0,1-3.422,8.26L37.267,36.2a.8.8,0,0,0-1.136,1.136l1.8,1.8a.8.8,0,0,0,1.138,0C45.061,33.406,44.91,23.155,39.072,17.547Z" transform="translate(-5.777 -5.79)" fill="#8a40be"/>
          <path id="패스_4360" data-name="패스 4360" d="M35.613,22.921a.8.8,0,0,0-1.1.294l-2.643,4.577a2.507,2.507,0,1,0,1.386.813l2.649-4.587A.8.8,0,0,0,35.613,22.921Zm-4.23,8.226a.9.9,0,1,1,.9-.9.9.9,0,0,1-.9.9Z" transform="translate(-8.883 -7.695)" fill="#8a40be"/>
        </g>
      </g>
    </g>
  </g>
</svg>
