<svg xmlns="http://www.w3.org/2000/svg" width="65" height="65" viewBox="0 0 65 65">
  <g id="그룹_8484" data-name="그룹 8484" transform="translate(-730 -475)">
    <circle id="타원_56" data-name="타원 56" cx="32.5" cy="32.5" r="32.5" transform="translate(730 475)" fill="#eceef0"/>
    <g id="구성_요소_29_18" data-name="구성 요소 29 – 18" transform="translate(740 485)">
      <rect id="사각형_2174" data-name="사각형 2174" width="45" height="45" fill="none"/>
      <g id="그룹_7715" data-name="그룹 7715" transform="translate(-6 -6)">
        <path id="패스_4409" data-name="패스 4409" d="M24.625,25.75a3.754,3.754,0,0,1,3.75,3.75H30.25a5.629,5.629,0,0,0-4.688-5.54V22H23.688v1.96a5.622,5.622,0,0,0,.938,11.165,3.75,3.75,0,1,1-3.75,3.75H19a5.629,5.629,0,0,0,4.688,5.54v1.96h1.875v-1.96a5.622,5.622,0,0,0-.937-11.165,3.75,3.75,0,0,1,0-7.5Z" transform="translate(-0.813 -1)" fill="#8a40be"/>
        <path id="패스_4410" data-name="패스 4410" d="M46.313,6H35.063a4.693,4.693,0,0,0-4.687,4.688v5.949a17.6,17.6,0,0,0-6.562-1.262A17.813,17.813,0,1,0,41.625,33.188a17.6,17.6,0,0,0-1.262-6.562h5.949A4.693,4.693,0,0,0,51,21.938V10.688A4.693,4.693,0,0,0,46.313,6ZM39.75,33.188A15.938,15.938,0,1,1,23.813,17.25a15.736,15.736,0,0,1,6.563,1.441v3.246a4.693,4.693,0,0,0,4.688,4.688h3.246A15.736,15.736,0,0,1,39.75,33.188Zm9.375-11.25a2.816,2.816,0,0,1-2.812,2.813H35.063a2.816,2.816,0,0,1-2.812-2.812V10.688a2.816,2.816,0,0,1,2.813-2.812h11.25a2.816,2.816,0,0,1,2.813,2.813Z" fill="#8a40be"/>
        <path id="패스_4411" data-name="패스 4411" d="M39.768,19.13l-2.15-2.15-1.326,1.326,3.475,3.475,8.163-8.163-1.326-1.326Z" transform="translate(-1.893 -0.393)" fill="#8a40be"/>
      </g>
    </g>
  </g>
</svg>
