<svg xmlns="http://www.w3.org/2000/svg" width="65" height="65" viewBox="0 0 65 65">
  <g id="그룹_8492" data-name="그룹 8492" transform="translate(-727 -1195)">
    <circle id="타원_56" data-name="타원 56" cx="32.5" cy="32.5" r="32.5" transform="translate(727 1195)" fill="#eceef0"/>
    <g id="구성_요소_30_2" data-name="구성 요소 30 – 2" transform="translate(738 1205)">
      <rect id="사각형_2175" data-name="사각형 2175" width="45" height="45" transform="translate(0)" fill="none"/>
      <g id="tuning_4750195" transform="translate(-5 -5.006)">
        <path id="패스_4382" data-name="패스 4382" d="M58.121,36.776a.763.763,0,1,0-1.361.687A20.976,20.976,0,0,1,24.486,62.909H27.72a.763.763,0,0,0,0-1.526H22.763a.763.763,0,0,0-.763.763V67.1a.763.763,0,1,0,1.525,0V64.1a22.5,22.5,0,0,0,34.6-27.32Z" transform="translate(-10.517 -19.378)" fill="#8a40be"/>
        <path id="패스_4383" data-name="패스 4383" d="M12.669,12.675a21.088,21.088,0,0,1,28.364-1.186H37.8a.763.763,0,0,0,0,1.526h4.957a.763.763,0,0,0,.763-.763V7.293a.763.763,0,1,0-1.525,0V10.3a22.493,22.493,0,0,0-34.6,27.293.763.763,0,1,0,1.365-.683A20.954,20.954,0,0,1,12.669,12.675Z" transform="translate(0 0)" fill="#8a40be"/>
        <path id="패스_4384" data-name="패스 4384" d="M55.091,49.6a5.493,5.493,0,1,0,5.491,5.493A5.492,5.492,0,0,0,55.091,49.6Zm0,9.46a3.967,3.967,0,1,1,3.966-3.967A3.967,3.967,0,0,1,55.091,59.06Z" transform="translate(-27.592 -27.583)" fill="#8a40be"/>
        <path id="패스_4385" data-name="패스 4385" d="M55.723,35.991A14.079,14.079,0,0,0,53.591,32.3a.763.763,0,0,0-.763-.267l-2.975.656A11.215,11.215,0,0,0,46.235,30.6l-.919-2.9a.763.763,0,0,0-.614-.523,14.3,14.3,0,0,0-4.256,0,.763.763,0,0,0-.614.526l-.919,2.9A11.214,11.214,0,0,0,35.294,32.7l-2.975-.656a.763.763,0,0,0-.763.267,14.08,14.08,0,0,0-2.132,3.689.763.763,0,0,0,.149.793l2.055,2.247a11.087,11.087,0,0,0,0,4.2l-2.055,2.247a.763.763,0,0,0-.149.793,14.08,14.08,0,0,0,2.132,3.689.763.763,0,0,0,.763.267l2.975-.656a11.214,11.214,0,0,0,3.619,2.094l.919,2.9a.763.763,0,0,0,.614.523,14.243,14.243,0,0,0,4.256,0,.763.763,0,0,0,.614-.523l.919-2.9a11.214,11.214,0,0,0,3.619-2.094l2.975.656a.763.763,0,0,0,.763-.267,14.079,14.079,0,0,0,2.132-3.689.763.763,0,0,0-.149-.793l-2.055-2.247a11.09,11.09,0,0,0,0-4.2l2.055-2.247A.763.763,0,0,0,55.723,35.991ZM52.131,38.28a.763.763,0,0,0-.179.683,9.593,9.593,0,0,1,0,4.3.763.763,0,0,0,.16.694l1.994,2.178a12.546,12.546,0,0,1-1.434,2.483L49.8,47.988a.763.763,0,0,0-.683.187,9.654,9.654,0,0,1-3.714,2.151.763.763,0,0,0-.5.5l-.889,2.815a12.76,12.76,0,0,1-2.868,0l-.889-2.815a.763.763,0,0,0-.5-.5,9.658,9.658,0,0,1-3.714-2.151.763.763,0,0,0-.69-.187l-2.883.637a12.547,12.547,0,0,1-1.434-2.483l2.01-2.19a.763.763,0,0,0,.179-.683,9.593,9.593,0,0,1,0-4.3.763.763,0,0,0-.179-.683L31.05,36.113a12.547,12.547,0,0,1,1.434-2.483l2.868.626a.762.762,0,0,0,.683-.187,9.659,9.659,0,0,1,3.714-2.151.763.763,0,0,0,.5-.5L41.14,28.6a12.76,12.76,0,0,1,2.868,0l.889,2.815a.763.763,0,0,0,.5.5,9.656,9.656,0,0,1,3.714,2.151.762.762,0,0,0,.683.187l2.883-.637A12.549,12.549,0,0,1,54.114,36.1Z" transform="translate(-15.079 -13.612)" fill="#8a40be"/>
      </g>
    </g>
  </g>
</svg>
