<svg xmlns="http://www.w3.org/2000/svg" width="65" height="65" viewBox="0 0 65 65">
  <g id="그룹_8486" data-name="그룹 8486" transform="translate(-1345 -475)">
    <circle id="타원_56" data-name="타원 56" cx="32.5" cy="32.5" r="32.5" transform="translate(1345 475)" fill="#eceef0"/>
    <g id="구성_요소_28_5" data-name="구성 요소 28 – 5" transform="translate(1355 485)">
      <rect id="사각형_2173" data-name="사각형 2173" width="45" height="45" transform="translate(0 0)" fill="none"/>
      <g id="XMLID_14_" transform="translate(-8 0)">
        <path id="패스_4361" data-name="패스 4361" d="M127.7,106.049a12.617,12.617,0,0,0-17.3,0,11.744,11.744,0,0,0-3.5,8.467,11.991,11.991,0,0,0,4.2,9.076,7.768,7.768,0,0,1,2.578,4.845,2.433,2.433,0,0,0-1.2,2.1v.729a2.438,2.438,0,0,0,1.764,2.338,2.416,2.416,0,0,0-.212.99v.729a2.439,2.439,0,0,0,2.439,2.433h5.146a2.439,2.439,0,0,0,2.439-2.433v-.729a2.414,2.414,0,0,0-.212-.99,2.438,2.438,0,0,0,1.764-2.338v-.729a2.433,2.433,0,0,0-1.2-2.1A7.769,7.769,0,0,1,127,123.592a11.991,11.991,0,0,0,4.2-9.076A11.744,11.744,0,0,0,127.7,106.049Zm-5.165,29.269a.9.9,0,0,1-.91.895h-5.147a.9.9,0,0,1-.91-.895v-.729a.9.9,0,0,1,.91-.895h5.146a.9.9,0,0,1,.91.895v.729Zm1.552-4.057a.9.9,0,0,1-.91.895h-8.25a.9.9,0,0,1-.91-.895v-.729a.9.9,0,0,1,.91-.895h8.25a.9.9,0,0,1,.91.895Zm-7.406-12.813H115.17a1.1,1.1,0,1,1,0-2.192h.4a1.105,1.105,0,0,1,1.112,1.1Zm3.268,9.65h-1.739v-8.112h1.739Zm6.05-5.676a9.258,9.258,0,0,0-3.078,5.676h-1.443v-8.112h1.541a2.634,2.634,0,1,0,0-5.269h-.429a2.641,2.641,0,0,0-2.641,2.634v1.1h-1.738v-1.1a2.641,2.641,0,0,0-2.641-2.634h-.4a2.634,2.634,0,1,0,0,5.269h1.516V128.1h-1.5a9.257,9.257,0,0,0-3.078-5.676,10.451,10.451,0,0,1-3.668-7.907,10.618,10.618,0,0,1,21.23,0A10.449,10.449,0,0,1,126,122.423Zm-4.521-3.974v-1.1a1.105,1.105,0,0,1,1.112-1.1h.429a1.1,1.1,0,1,1,0,2.192Z" transform="translate(-88.557 -92.752)" fill="#8a40be"/>
        <g id="그룹_7708" data-name="그룹 7708" transform="translate(9 0)">
          <path id="패스_4362" data-name="패스 4362" d="M42.743,38.9a2.158,2.158,0,0,1-1.541-.641L39.052,36.1l1.08-1.089,2.15,2.157a.733.733,0,0,0,.947.036l2.635-2.556a.734.734,0,0,0,.035-.936L43.8,31.6a.773.773,0,0,1-.091-.98,15.834,15.834,0,0,0,2.39-5.654.766.766,0,0,1,.748-.612h2.99a.7.7,0,0,0,.634-.669V19.971a.72.72,0,0,0-.758-.635H46.667a.766.766,0,0,1-.754-.642,15.329,15.329,0,0,0-2.3-5.729.773.773,0,0,1,.1-.965l2.15-2.157a.735.735,0,0,0,.036-.944L43.347,6.254a.732.732,0,0,0-.938-.035l-2.1,2.106a.761.761,0,0,1-.971.091,15.724,15.724,0,0,0-5.636-2.4.768.768,0,0,1-.609-.753V2.207a.636.636,0,0,0-.579-.669H28.809a.7.7,0,0,0-.634.669V5.353a.768.768,0,0,1-.639.759,15.22,15.22,0,0,0-5.711,2.314.761.761,0,0,1-.956-.1l-2.15-2.157a.733.733,0,0,0-.947-.036L15.137,8.688a.734.734,0,0,0-.035.935l2.1,2.106a.773.773,0,0,1,.091.98,15.834,15.834,0,0,0-2.39,5.655.766.766,0,0,1-.748.612h-2.99a.7.7,0,0,0-.634.669v3.719A.7.7,0,0,0,11.2,24h3.045a.766.766,0,0,1,.754.642,15.326,15.326,0,0,0,2.3,5.729.773.773,0,0,1-.1.965l-2.15,2.157a.735.735,0,0,0-.035.944l2.547,2.644a.732.732,0,0,0,.938.035l2.1-2.106L21.68,36.1l-2.15,2.157a.758.758,0,0,1-.1.082,2.25,2.25,0,0,1-2.954-.172l-.009-.009-2.6-2.7a.782.782,0,0,1-.073-.087,2.274,2.274,0,0,1,.171-2.97l1.718-1.723a16.968,16.968,0,0,1-2.078-5.142H11.2a2.23,2.23,0,0,1-2.192-2.022A.781.781,0,0,1,9,23.42V19.645a2.232,2.232,0,0,1,2.013-2.2.759.759,0,0,1,.095-.006h2.436a17.448,17.448,0,0,1,2.136-5.061l-1.708-1.714a.764.764,0,0,1-.082-.1,2.274,2.274,0,0,1,.171-2.97l.009-.009,2.687-2.607a.768.768,0,0,1,.087-.073,2.25,2.25,0,0,1,2.954.172L21.519,6.8a16.841,16.841,0,0,1,5.127-2.087V2.207a2.232,2.232,0,0,1,2.013-2.2A.753.753,0,0,1,28.753,0h3.762a2.162,2.162,0,0,1,2.108,2.207V4.649A17.314,17.314,0,0,1,39.67,6.795L41.38,5.078a.76.76,0,0,1,.1-.082,2.25,2.25,0,0,1,2.954.172l.009.009,2.6,2.7a.777.777,0,0,1,.073.088,2.274,2.274,0,0,1-.171,2.97l-1.717,1.723A16.975,16.975,0,0,1,47.3,17.8h2.414a2.251,2.251,0,0,1,2.281,2.022.781.781,0,0,1,.006.1V23.69a2.232,2.232,0,0,1-2.013,2.2.759.759,0,0,1-.095.006H47.456a17.447,17.447,0,0,1-2.136,5.061l1.708,1.714a.765.765,0,0,1,.082.1,2.274,2.274,0,0,1-.171,2.97l-.009.009-2.687,2.607a.769.769,0,0,1-.087.073,2.429,2.429,0,0,1-1.413.469Z" transform="translate(-9 0)" fill="#8a40be"/>
        </g>
      </g>
    </g>
  </g>
</svg>
