<svg xmlns="http://www.w3.org/2000/svg" width="65" height="65" viewBox="0 0 65 65">
  <g id="그룹_8488" data-name="그룹 8488" transform="translate(-727 -825)">
    <circle id="타원_56" data-name="타원 56" cx="32.5" cy="32.5" r="32.5" transform="translate(727 825)" fill="#eceef0"/>
    <g id="구성_요소_25_4" data-name="구성 요소 25 – 4" transform="translate(738 835)">
      <rect id="사각형_2170" data-name="사각형 2170" width="45" height="45" transform="translate(0 0)" fill="none"/>
      <g id="그룹_7723" data-name="그룹 7723" transform="translate(-3.311 -2.75)">
        <path id="패스_4412" data-name="패스 4412" d="M39.349,47.75H13.28a3,3,0,0,1-2.97-3.009V5.759A3,3,0,0,1,13.28,2.75H39.349a3,3,0,0,1,2.961,3.009V44.741A3,3,0,0,1,39.349,47.75ZM13.28,4.114a1.616,1.616,0,0,0-1.573,1.645V44.741a1.616,1.616,0,0,0,1.573,1.645H39.349a1.607,1.607,0,0,0,1.564-1.645V5.759a1.607,1.607,0,0,0-1.564-1.645Z" transform="translate(0 0)" fill="#8a40be"/>
        <path id="패스_4413" data-name="패스 4413" d="M15.5,8.454h-.689a.682.682,0,1,1,0-1.364H15.5a.682.682,0,1,1,0,1.364Z" transform="translate(-0.262 -0.395)" fill="#8a40be"/>
        <path id="패스_4414" data-name="패스 4414" d="M15.5,47.774h-.689a.682.682,0,1,1,0-1.364H15.5a.682.682,0,1,1,0,1.364Z" transform="translate(-0.262 -3.969)" fill="#8a40be"/>
        <path id="패스_4415" data-name="패스 4415" d="M40.037,8.454h-.689a.682.682,0,1,1,0-1.364h.689a.682.682,0,1,1,0,1.364Z" transform="translate(-1.955 -0.395)" fill="#8a40be"/>
        <path id="패스_4416" data-name="패스 4416" d="M40.037,47.774h-.689a.682.682,0,1,1,0-1.364h.689a.682.682,0,1,1,0,1.364Z" transform="translate(-1.955 -3.969)" fill="#8a40be"/>
        <path id="패스_4417" data-name="패스 4417" d="M26.975,22.146a7,7,0,0,1-7.085-6.918,7.087,7.087,0,0,1,14.17,0A7,7,0,0,1,26.975,22.146Zm0-12.473a5.556,5.556,0,1,0,5.689,5.555A5.623,5.623,0,0,0,26.975,9.674Z" transform="translate(-0.661 -0.505)" fill="#8a40be"/>
        <path id="패스_4418" data-name="패스 4418" d="M27.2,19.438A3.91,3.91,0,1,1,31.2,15.529,3.958,3.958,0,0,1,27.2,19.438Zm0-6.445a2.609,2.609,0,0,0-2.416,1.567,2.5,2.5,0,0,0,.563,2.778,2.653,2.653,0,0,0,2.845.55,2.537,2.537,0,0,0-.993-4.9Z" transform="translate(-0.888 -0.806)" fill="#8a40be"/>
        <path id="패스_4419" data-name="패스 4419" d="M26.821,45.443a8.939,8.939,0,1,1,9.143-8.927A9.046,9.046,0,0,1,26.821,45.443Zm0-16.5a7.575,7.575,0,1,0,7.746,7.573A7.666,7.666,0,0,0,26.821,28.943Z" transform="translate(-0.507 -2.256)" fill="#8a40be"/>
        <path id="패스_4420" data-name="패스 4420" d="M27.059,42.646a5.82,5.82,0,1,1,5.959-5.818A5.89,5.89,0,0,1,27.059,42.646Zm0-10.273a4.456,4.456,0,1,0,4.562,4.455A4.509,4.509,0,0,0,27.059,32.374Z" transform="translate(-0.744 -2.569)" fill="#8a40be"/>
      </g>
    </g>
  </g>
</svg>
