<svg xmlns="http://www.w3.org/2000/svg" width="65" height="65" viewBox="0 0 65 65">
  <g id="그룹_8490" data-name="그룹 8490" transform="translate(-1342 -825)">
    <circle id="타원_56" data-name="타원 56" cx="32.5" cy="32.5" r="32.5" transform="translate(1342 825)" fill="#eceef0"/>
    <g id="구성_요소_32_4" data-name="구성 요소 32 – 4" transform="translate(1353 835)">
      <rect id="사각형_2169" data-name="사각형 2169" width="45" height="45" transform="translate(0 0)" fill="none"/>
      <g id="_x34_7_Maximize" transform="translate(-13.941 -13.897)">
        <path id="패스_4423" data-name="패스 4423" d="M55.445,13.9h-30.6a3.5,3.5,0,0,0-3.5,3.5V39.9h-3.91a3.5,3.5,0,0,0-3.5,3.5V55.409a3.5,3.5,0,0,0,3.5,3.5h12a3.5,3.5,0,0,0,3.5-3.5V51.5H55.445a3.5,3.5,0,0,0,3.5-3.5V17.393A3.5,3.5,0,0,0,55.445,13.9ZM31.532,55.409a2.092,2.092,0,0,1-2.09,2.089h-12a2.092,2.092,0,0,1-2.09-2.089V43.4a2.092,2.092,0,0,1,2.09-2.09h12a2.092,2.092,0,0,1,2.09,2.09V55.409Zm26-7.4a2.092,2.092,0,0,1-2.09,2.089H32.938V43.4a3.472,3.472,0,0,0-.58-1.921L52.417,21.418v3.605a.7.7,0,0,0,1.407,0v-5.3a.706.706,0,0,0-.7-.7h-5.3a.7.7,0,0,0,0,1.407h3.606L31.364,40.483a3.473,3.473,0,0,0-1.922-.581H22.754V17.393a2.092,2.092,0,0,1,2.09-2.09h30.6a2.092,2.092,0,0,1,2.09,2.09V48.007Z" transform="translate(0 0)" fill="#8a40be"/>
      </g>
    </g>
  </g>
</svg>
