<svg id="ico07" xmlns="http://www.w3.org/2000/svg" xmlns:xlink="http://www.w3.org/1999/xlink" width="90" height="90" viewBox="0 0 90 90">
  <defs>
    <clipPath id="clip-path">
      <rect id="사각형_2087" data-name="사각형 2087" width="65" height="70" fill="none"/>
    </clipPath>
  </defs>
  <rect id="사각형_2066" data-name="사각형 2066" width="90" height="90" fill="none"/>
  <g id="그룹_7542" data-name="그룹 7542" transform="translate(13 10)">
    <g id="그룹_7541" data-name="그룹 7541" clip-path="url(#clip-path)">
      <path id="패스_4196" data-name="패스 4196" d="M32.7,70C10.672,63.942,2.967,44.684.012,22.17a1.4,1.4,0,0,1,.583-1.32A44.422,44.422,0,0,0,16.6.857,1.408,1.408,0,0,1,18.158.025,64.633,64.633,0,0,0,32.681,1.586,61.369,61.369,0,0,0,46.84.025,1.4,1.4,0,0,1,48.4.857,44.5,44.5,0,0,0,64.406,20.85a1.4,1.4,0,0,1,.582,1.32C62.041,44.612,55.508,63.929,33.446,70Zm.371-2.8,3.265-1.065c15.072-5.726,21.391-19.078,24.6-36.18L62.092,22.6l-2.381-1.8A46.492,46.492,0,0,1,47.131,4.837l-.849-1.873-.929.182A58.955,58.955,0,0,1,32.681,4.375a58.932,58.932,0,0,1-11.121-.9l-2.835-.518-.853,1.877A46.545,46.545,0,0,1,5.292,20.8l-2.377,1.8,1.2,7.34C7.511,46.995,14.581,60.4,29.79,66.135Zm-.513-5.525C15.771,57.058,9.939,42.37,7.716,25.4a1.385,1.385,0,0,1,.578-1.322A33.116,33.116,0,0,0,20.22,9.187a1.4,1.4,0,0,1,1.557-.832A48.617,48.617,0,0,0,32.635,9.525a46.217,46.217,0,0,0,10.59-1.171,1.4,1.4,0,0,1,1.555.832A33.148,33.148,0,0,0,56.708,24.079a1.4,1.4,0,0,1,.581,1.322C55.069,42.3,50.132,57.044,33.3,61.675Zm.371-2.8,2.324-.757c11.179-4.239,15.89-14.136,18.3-26.959l.837-5.328-1.637-1.238a35.42,35.42,0,0,1-9.558-12.12L42.664,11.3l-.431.082a44.469,44.469,0,0,1-9.6.936,44.582,44.582,0,0,1-8.426-.685l-1.871-.339-.533,1.177a35.356,35.356,0,0,1-9.554,12.12l-1.633,1.238.866,5.31c2.545,12.785,7.823,22.722,19.1,26.978Z" transform="translate(0 0)" fill="#432a55"/>
      <path id="패스_4197" data-name="패스 4197" d="M63.212,93.785c-.029,0-.078-.008-.094-.008a5.474,5.474,0,0,1-1.456-10.551l.166-.049.107-.412a5.483,5.483,0,0,1,5.234-3.831c.189,0,.375.01.585.031l.1-.179a8.08,8.08,0,0,1,14.807,2.591l.373.1a6.273,6.273,0,0,1,5.025,6.13,6.2,6.2,0,0,1-5.674,6.155l-.23.016a1.138,1.138,0,0,1-.117,0H63.212Zm18.772-3.06.138-.01a3.126,3.126,0,0,0,2.865-3.1,3.212,3.212,0,0,0-3.214-3.2c-.1,0-.209.008-.33.02-.051,0-.1.006-.164.006a1.537,1.537,0,0,1-1.54-1.45l-.031-.571-.176-.894a5,5,0,0,0-9.042-1.151l-.324.63-.1.276a1.543,1.543,0,0,1-1.9.932l-.55-.169-.443-.047a2.406,2.406,0,0,0-2.408,2.391l0,.157a1.532,1.532,0,0,1-1.372,1.4l-.242.027-.363.108a2.416,2.416,0,0,0,.2,4.57l.414.082Z" transform="translate(-41.002 -52.929)" fill="#a265ca"/>
    </g>
  </g>
</svg>
