<svg id="ico06" xmlns="http://www.w3.org/2000/svg" xmlns:xlink="http://www.w3.org/1999/xlink" width="90" height="90" viewBox="0 0 90 90">
  <defs>
    <clipPath id="clip-path">
      <rect id="사각형_2063" data-name="사각형 2063" width="80" height="68.356" fill="none"/>
    </clipPath>
  </defs>
  <rect id="사각형_2066" data-name="사각형 2066" width="90" height="90" fill="none"/>
  <g id="그룹_7467" data-name="그룹 7467" transform="translate(5 11)">
    <g id="그룹_7466" data-name="그룹 7466" clip-path="url(#clip-path)">
      <path id="패스_4194" data-name="패스 4194" d="M12.025,48.8c-.034,0-.092,0-.126,0l-.151-.012A13.057,13.057,0,0,1,8.27,23.649l1.851-.549.187-1.222A12.978,12.978,0,0,1,23.014,11.521a13.228,13.228,0,0,1,2.609.263c.057.012.114.027.169.043l.387.121,1.1-2.149a20.342,20.342,0,0,1,37.634,8.465c0,.016,0,.069.007.087l0,.121,1.35.068A15.3,15.3,0,0,1,80,33.747a15.084,15.084,0,0,1-13.755,15l-.634.046a1.146,1.146,0,0,1-.126,0H63.65a1.716,1.716,0,1,1,0-3.432h2.3A11.705,11.705,0,0,0,76.568,33.747,11.865,11.865,0,0,0,64.714,21.894a12.12,12.12,0,0,0-1.222.064l-.645-.046a1.72,1.72,0,0,1-1.265-1.572l-.089-1.753-.231-1.551a16.912,16.912,0,0,0-31.048-5.458l-1.108,2.165-.33.9a1.719,1.719,0,0,1-2.121,1.048L24.9,15.148l-1.883-.194a9.549,9.549,0,0,0-9.54,9.535l-.068.616A1.717,1.717,0,0,1,11.943,26.3l-.879.089-1.538.458a9.623,9.623,0,0,0,2.54,18.524l3.872,0a1.716,1.716,0,1,1,0,3.432Z" transform="translate(0 0.001)" fill="#a265ca"/>
      <path id="패스_4195" data-name="패스 4195" d="M71.229,118.37a1.705,1.705,0,0,1-.565-.126l-6.652-2.7a1.718,1.718,0,0,1-1.05-1.858l.586-3.721-.506-.458-.714-.776-3.737.647a1.714,1.714,0,0,1-1.874-1.02l-2.8-6.611a1.717,1.717,0,0,1,.57-2.057L57.7,97.354l-.034-.812.037-.682-3.259-2.3a1.713,1.713,0,0,1-.6-2.05l2.7-6.655A1.714,1.714,0,0,1,58.4,83.809l4.018.636.549-.6.428-.391L62.7,79.439a1.717,1.717,0,0,1,1.023-1.872l6.609-2.8a1.716,1.716,0,0,1,2.057.57l2.362,3.247,1.478-.034L78.524,75.3a1.718,1.718,0,0,1,2.048-.6l6.657,2.7a1.717,1.717,0,0,1,1.05,1.861l-.6,3.771.785.7.444.479,3.735-.65a1.714,1.714,0,0,1,1.874,1.02l2.8,6.611a1.716,1.716,0,0,1-.572,2.057L93.819,95.37l.057.723-.018,1.22,2.931,2.062a1.718,1.718,0,0,1,.6,2.048l-2.7,6.655a1.717,1.717,0,0,1-1.86,1.05l-3.469-.547-.528.6-.908.86.6,3.451a1.715,1.715,0,0,1-1.021,1.874l-6.611,2.8a1.716,1.716,0,0,1-2.057-.57L76.734,114.7l-1.952.043-2.071,2.895a1.723,1.723,0,0,1-1.483.728m-.538-3.819,1.84-2.616a1.717,1.717,0,0,1,1.584-.716l.462.048a14.422,14.422,0,0,0,2.67-.025l.089-.014a1.722,1.722,0,0,1,1.62.691l1.86,2.556,4.1-1.734-.533-3.066A1.714,1.714,0,0,1,85,108.045l.407-.33a14.1,14.1,0,0,0,1.858-1.938l.08-.1a1.717,1.717,0,0,1,1.62-.636l3.064.485L93.7,101.4l-2.593-1.824a1.719,1.719,0,0,1-.723-1.544l.044-.54a14.59,14.59,0,0,0-.075-2.556l-.021-.119a1.716,1.716,0,0,1,.689-1.652l2.6-1.893-1.734-4.1-3.311.574a1.751,1.751,0,0,1-1.641-.609A13.308,13.308,0,0,0,85.1,85.31l-.318-.247a1.715,1.715,0,0,1-.643-1.625l.535-3.377-4.131-1.675L78.5,81.292a1.713,1.713,0,0,1-1.5.725l-.743-.039a13.316,13.316,0,0,0-1.625.034l-.528.057a1.715,1.715,0,0,1-1.572-.7l-2.119-2.913L66.32,80.2l.622,3.6a1.672,1.672,0,0,1-.6,1.595,16.516,16.516,0,0,0-1.781,1.8l-.153.188a1.714,1.714,0,0,1-1.593.6l-3.6-.567-1.677,4.128,2.92,2.057a1.719,1.719,0,0,1,.73,1.4c0,.08,0,.14-.009.2q-.068.683-.073,1.364l.062,1.334a1.754,1.754,0,0,1-.687,1.687l-2.87,2.087,1.734,4.1,3.35-.581a1.712,1.712,0,0,1,1.645.632l.215.275a14.764,14.764,0,0,0,1.911,1.895l.13.114a1.714,1.714,0,0,1,.485,1.481l-.519,3.293Zm4.968-7.943A10.342,10.342,0,1,1,86,96.265a10.344,10.344,0,0,1-10.341,10.343m0-3.432a6.91,6.91,0,1,0-6.911-6.911,6.914,6.914,0,0,0,6.911,6.911" transform="translate(-36.032 -50.016)" fill="#432a55"/>
    </g>
  </g>
</svg>
