<svg id="ico02_on" xmlns="http://www.w3.org/2000/svg" xmlns:xlink="http://www.w3.org/1999/xlink" width="45" height="45" viewBox="0 0 45 45">
  <defs>
    <clipPath id="clip-path">
      <rect id="사각형_2672" data-name="사각형 2672" width="45" height="44.999" fill="#f29f05"/>
    </clipPath>
  </defs>
  <rect id="사각형_2667" data-name="사각형 2667" width="45" height="45" fill="none"/>
  <g id="그룹_8712" data-name="그룹 8712" clip-path="url(#clip-path)">
    <path id="패스_5104" data-name="패스 5104" d="M42.274,18.682H36.6a14.338,14.338,0,0,0-1.222-2.955l4.013-4.014a1.635,1.635,0,0,0,0-2.313L36.01,6.023a1.636,1.636,0,0,0-2.314,0l-4.013,4.013a14.461,14.461,0,0,0-2.956-1.222V3.136A1.635,1.635,0,0,0,25.092,1.5H20.318a1.637,1.637,0,0,0-1.637,1.636V8.814a14.407,14.407,0,0,0-2.954,1.222L11.713,6.023a1.637,1.637,0,0,0-2.314,0L6.024,9.4a1.637,1.637,0,0,0,0,2.314l4.013,4.014a14.434,14.434,0,0,0-1.222,2.955H3.135A1.634,1.634,0,0,0,1.5,20.318l0,4.775a1.636,1.636,0,0,0,1.637,1.636H8.814a14.434,14.434,0,0,0,1.222,2.955L6.024,33.7a1.636,1.636,0,0,0,0,2.314L9.4,39.387a1.635,1.635,0,0,0,2.314,0l4.014-4.013A14.4,14.4,0,0,0,18.681,36.6v5.678a1.637,1.637,0,0,0,1.637,1.637h4.774a1.636,1.636,0,0,0,1.637-1.637V36.6a14.41,14.41,0,0,0,2.956-1.222L33.7,39.387a1.637,1.637,0,0,0,2.314,0l3.375-3.377a1.634,1.634,0,0,0,0-2.314l-4.013-4.013A14.338,14.338,0,0,0,36.6,26.728h5.679a1.637,1.637,0,0,0,1.636-1.636V20.318a1.636,1.636,0,0,0-1.636-1.636" transform="translate(-0.205 -0.206)" fill="#f29f05"/>
    <path id="패스_5105" data-name="패스 5105" d="M24.887,45H20.113a2.935,2.935,0,0,1-2.932-2.932V37.332c-.479-.171-.95-.365-1.409-.582L12.423,40.1a3,3,0,0,1-4.145,0L4.9,36.721a2.933,2.933,0,0,1,0-4.145L8.25,29.228q-.325-.689-.584-1.41H2.932A2.934,2.934,0,0,1,0,24.887V20.113A2.93,2.93,0,0,1,2.93,17.182H7.667c.173-.479.367-.95.584-1.41L4.9,12.423a2.93,2.93,0,0,1,0-4.145L8.278,4.9a2.936,2.936,0,0,1,4.144,0l3.35,3.349q.688-.324,1.41-.582V2.931A2.934,2.934,0,0,1,20.113,0h4.774a2.934,2.934,0,0,1,2.932,2.931V7.668c.481.172.952.366,1.411.583L32.577,4.9a2.933,2.933,0,0,1,4.145,0L40.1,8.28a2.932,2.932,0,0,1,0,4.144L36.75,15.771q.324.689.583,1.411h4.737A2.934,2.934,0,0,1,45,20.113v4.774a2.933,2.933,0,0,1-2.93,2.931H37.332q-.259.721-.583,1.411L40.1,32.577a2.933,2.933,0,0,1,0,4.145L36.721,40.1a2.933,2.933,0,0,1-4.144,0l-3.349-3.348c-.459.216-.931.411-1.411.582v4.736A2.935,2.935,0,0,1,24.887,45M15.522,33.874a1.291,1.291,0,0,1,.626.161,13.1,13.1,0,0,0,2.687,1.111,1.3,1.3,0,0,1,.936,1.244v5.678a.343.343,0,0,0,.342.342h4.774a.343.343,0,0,0,.342-.342V36.391a1.3,1.3,0,0,1,.936-1.244,13.129,13.129,0,0,0,2.689-1.111,1.3,1.3,0,0,1,1.542.218l4.013,4.013a.344.344,0,0,0,.483,0l3.375-3.376a.342.342,0,0,0,0-.483l-4.013-4.013a1.3,1.3,0,0,1-.218-1.542,13.067,13.067,0,0,0,1.111-2.689,1.3,1.3,0,0,1,1.245-.935h5.679a.34.34,0,0,0,.34-.341V20.113a.341.341,0,0,0-.34-.342H36.391a1.3,1.3,0,0,1-1.245-.935,13.067,13.067,0,0,0-1.111-2.689,1.3,1.3,0,0,1,.218-1.542l4.013-4.014a.342.342,0,0,0,0-.482L34.891,6.734a.343.343,0,0,0-.483,0L30.4,10.747a1.3,1.3,0,0,1-1.542.218,13.119,13.119,0,0,0-2.69-1.113,1.3,1.3,0,0,1-.935-1.244V2.931a.342.342,0,0,0-.342-.341H20.113a.342.342,0,0,0-.342.341V8.609a1.3,1.3,0,0,1-.935,1.244,13.063,13.063,0,0,0-2.687,1.112,1.3,1.3,0,0,1-1.543-.218L10.592,6.734a.342.342,0,0,0-.483,0L6.734,10.109a.341.341,0,0,0,0,.482l4.014,4.015a1.3,1.3,0,0,1,.218,1.54,13.19,13.19,0,0,0-1.112,2.691,1.3,1.3,0,0,1-1.245.935H2.93a.34.34,0,0,0-.339.339v4.777a.341.341,0,0,0,.342.341H8.609a1.3,1.3,0,0,1,1.245.935,13.17,13.17,0,0,0,1.112,2.691,1.3,1.3,0,0,1-.218,1.54L6.734,34.408a.342.342,0,0,0,0,.483l3.375,3.376a.3.3,0,0,0,.482,0l4.015-4.013a1.3,1.3,0,0,1,.916-.379" transform="translate(0 0)" fill="#fff"/>
    <path id="패스_5106" data-name="패스 5106" d="M29.734,25.372a4.361,4.361,0,1,1-4.361-4.361,4.361,4.361,0,0,1,4.361,4.361" transform="translate(-2.873 -2.873)" fill="#fff"/>
    <path id="패스_5107" data-name="패스 5107" d="M25.167,30.823a5.656,5.656,0,1,1,5.656-5.656,5.663,5.663,0,0,1-5.656,5.656m0-8.723a3.066,3.066,0,1,0,3.066,3.066A3.07,3.07,0,0,0,25.167,22.1" transform="translate(-2.668 -2.668)" fill="#fff"/>
  </g>
</svg>
