<svg id="ico01_on" xmlns="http://www.w3.org/2000/svg" xmlns:xlink="http://www.w3.org/1999/xlink" width="45" height="45" viewBox="0 0 45 45">
  <defs>
    <clipPath id="clip-path">
      <rect id="사각형_2685" data-name="사각형 2685" width="45" height="40.511" fill="none"/>
    </clipPath>
  </defs>
  <rect id="사각형_2669" data-name="사각형 2669" width="45" height="45" fill="none"/>
  <g id="그룹_8719" data-name="그룹 8719" transform="translate(0 2)" clip-path="url(#clip-path)">
    <path id="패스_5142" data-name="패스 5142" d="M34.6,10.576A12.8,12.8,0,0,0,9.564,13.667a10.421,10.421,0,0,0,2.361,20.571H28.753c.092,0,.182-.012.274-.014.182.008.365.014.549.014h2.377A11.979,11.979,0,0,0,34.6,10.576" transform="translate(-0.216 -0.216)" fill="#f29f05"/>
    <path id="패스_5143" data-name="패스 5143" d="M31.737,35.307H29.359c-.2,0-.4-.007-.6-.015a1.339,1.339,0,0,1-.218.015H11.709A11.706,11.706,0,0,1,8.143,12.451,14.089,14.089,0,0,1,35.382,9.29a13.264,13.264,0,0,1-3.646,26.017m-2.955-2.582c.249.008.412.014.578.014h2.377A10.7,10.7,0,0,0,34.1,11.613a1.286,1.286,0,0,1-.947-.879A11.519,11.519,0,0,0,10.63,13.515,1.282,1.282,0,0,1,9.638,14.7a9.137,9.137,0,0,0,2.071,18.037H28.537c.121-.009.183-.013.245-.014" transform="translate(0 0)" fill="#fff"/>
    <path id="사각형_2684" data-name="사각형 2684" d="M2.811,0H14.3a2.811,2.811,0,0,1,2.811,2.811v14.7A2.811,2.811,0,0,1,14.3,20.319H2.813A2.813,2.813,0,0,1,0,17.506V2.811A2.811,2.811,0,0,1,2.811,0Z" transform="translate(14.319 18.908)" fill="#f29f05"/>
    <path id="패스_5144" data-name="패스 5144" d="M31.215,43.474h-12.3a3.7,3.7,0,0,1-3.691-3.69V24.277a3.7,3.7,0,0,1,3.691-3.69h12.3a3.7,3.7,0,0,1,3.692,3.69V39.784a3.7,3.7,0,0,1-3.692,3.69m-12.3-20.319A1.124,1.124,0,0,0,17.8,24.277V39.784a1.124,1.124,0,0,0,1.123,1.122h12.3a1.124,1.124,0,0,0,1.124-1.122V24.277a1.124,1.124,0,0,0-1.124-1.122Z" transform="translate(-2.192 -2.964)" fill="#fff"/>
    <path id="패스_5145" data-name="패스 5145" d="M28.508,31.744H23.694a1.284,1.284,0,1,1,0-2.568h4.813a1.284,1.284,0,1,1,0,2.568" transform="translate(-3.226 -4.2)" fill="#fff"/>
    <path id="패스_5146" data-name="패스 5146" d="M28.508,38.3H23.694a1.284,1.284,0,1,1,0-2.568h4.813a1.284,1.284,0,1,1,0,2.568" transform="translate(-3.226 -5.144)" fill="#fff"/>
  </g>
</svg>
