<svg id="ico04_off" xmlns="http://www.w3.org/2000/svg" xmlns:xlink="http://www.w3.org/1999/xlink" width="45" height="45" viewBox="0 0 45 45">
  <defs>
    <clipPath id="clip-path">
      <rect id="사각형_1894" data-name="사각형 1894" width="44.723" height="45" fill="none"/>
    </clipPath>
  </defs>
  <rect id="사각형_2665" data-name="사각형 2665" width="45" height="45" fill="none"/>
  <g id="그룹_7151" data-name="그룹 7151" clip-path="url(#clip-path)">
    <path id="패스_3974" data-name="패스 3974" d="M43.256,7.461H1.467a1.467,1.467,0,0,1,0-2.934H43.256a1.467,1.467,0,0,1,0,2.934" transform="translate(0 -0.099)" fill="#fff"/>
    <path id="패스_3975" data-name="패스 3975" d="M17.148,5.927A4.428,4.428,0,1,1,12.72,1.5a4.427,4.427,0,0,1,4.427,4.427" transform="translate(-0.182 -0.033)"/>
    <path id="패스_3976" data-name="패스 3976" d="M12.686,11.79a5.895,5.895,0,1,1,5.894-5.9,5.9,5.9,0,0,1-5.894,5.9m0-8.856a2.961,2.961,0,1,0,2.96,2.96,2.965,2.965,0,0,0-2.96-2.96" transform="translate(-0.149 0)" fill="#fff"/>
    <path id="패스_3977" data-name="패스 3977" d="M43.256,24.44H1.467a1.467,1.467,0,1,1,0-2.934H43.256a1.467,1.467,0,0,1,0,2.934" transform="translate(0 -0.473)" fill="#fff"/>
    <path id="패스_3978" data-name="패스 3978" d="M36.673,22.906a4.428,4.428,0,1,1-4.427-4.427,4.428,4.428,0,0,1,4.427,4.427" transform="translate(-0.612 -0.406)"/>
    <path id="패스_3979" data-name="패스 3979" d="M32.212,28.769a5.895,5.895,0,1,1,5.894-5.9,5.9,5.9,0,0,1-5.894,5.9m0-8.856a2.961,2.961,0,1,0,2.96,2.96,2.965,2.965,0,0,0-2.96-2.96" transform="translate(-0.579 -0.373)" fill="#f29f05"/>
    <path id="패스_3980" data-name="패스 3980" d="M43.256,41.418H1.467a1.467,1.467,0,1,1,0-2.934H43.256a1.467,1.467,0,0,1,0,2.934" transform="translate(0 -0.846)" fill="#fff"/>
    <path id="패스_3981" data-name="패스 3981" d="M23.939,39.884a4.428,4.428,0,1,1-4.427-4.427,4.427,4.427,0,0,1,4.427,4.427" transform="translate(-0.332 -0.78)"/>
    <path id="패스_3982" data-name="패스 3982" d="M19.478,45.747a5.895,5.895,0,1,1,5.894-5.9,5.9,5.9,0,0,1-5.894,5.9m0-8.856a2.961,2.961,0,1,0,2.96,2.96,2.965,2.965,0,0,0-2.96-2.96" transform="translate(-0.299 -0.747)" fill="#fff"/>
  </g>
</svg>
