<svg id="ico02_off" xmlns="http://www.w3.org/2000/svg" xmlns:xlink="http://www.w3.org/1999/xlink" width="46" height="45" viewBox="0 0 46 45">
  <defs>
    <clipPath id="clip-path">
      <rect id="사각형_2680" data-name="사각형 2680" width="46" height="45" fill="#f29f05"/>
    </clipPath>
  </defs>
  <rect id="사각형_2665" data-name="사각형 2665" width="45" height="45" fill="none"/>
  <g id="그룹_8717" data-name="그룹 8717" clip-path="url(#clip-path)">
    <path id="패스_5132" data-name="패스 5132" d="M43.18,18.682h-5.8a14.167,14.167,0,0,0-1.25-2.955l4.1-4.014a1.61,1.61,0,0,0,0-2.313L36.777,6.023a1.7,1.7,0,0,0-2.365,0l-4.1,4.013a14.968,14.968,0,0,0-3.022-1.222V3.136A1.654,1.654,0,0,0,25.616,1.5h-4.88a1.655,1.655,0,0,0-1.673,1.636V8.814a14.911,14.911,0,0,0-3.02,1.222l-4.1-4.013a1.7,1.7,0,0,0-2.365,0L6.124,9.4a1.612,1.612,0,0,0,0,2.314l4.1,4.014a14.261,14.261,0,0,0-1.25,2.955h-5.8A1.652,1.652,0,0,0,1.5,20.318l0,4.775a1.655,1.655,0,0,0,1.673,1.636h5.8a14.261,14.261,0,0,0,1.25,2.955L6.124,33.7a1.611,1.611,0,0,0,0,2.314l3.45,3.377a1.7,1.7,0,0,0,2.365,0l4.1-4.013a14.9,14.9,0,0,0,3.02,1.222v5.678a1.656,1.656,0,0,0,1.673,1.637h4.88a1.654,1.654,0,0,0,1.673-1.637V36.6a14.915,14.915,0,0,0,3.022-1.222l4.1,4.013a1.7,1.7,0,0,0,2.365,0l3.45-3.377a1.609,1.609,0,0,0,0-2.314l-4.1-4.013a14.167,14.167,0,0,0,1.25-2.955h5.8a1.655,1.655,0,0,0,1.672-1.636V20.318a1.654,1.654,0,0,0-1.672-1.636" transform="translate(-0.176 -0.206)"/>
    <path id="패스_5133" data-name="패스 5133" d="M25.44,45H20.56a2.968,2.968,0,0,1-3-2.932V37.332c-.49-.171-.972-.365-1.44-.582L12.7,40.1a3.115,3.115,0,0,1-4.237,0l-3.45-3.376a2.888,2.888,0,0,1,0-4.145l3.422-3.349q-.332-.689-.6-1.41H3a2.967,2.967,0,0,1-3-2.931V20.113a2.879,2.879,0,0,1,.875-2.071A3.009,3.009,0,0,1,3,17.182H7.837c.176-.479.375-.95.6-1.41l-3.422-3.35a2.885,2.885,0,0,1,0-4.145L8.462,4.9a3.048,3.048,0,0,1,4.236,0l3.424,3.349q.7-.324,1.441-.582V2.931A2.967,2.967,0,0,1,20.56,0h4.88a2.967,2.967,0,0,1,3,2.931V7.668c.492.172.973.366,1.442.583L33.3,4.9a3.046,3.046,0,0,1,4.237,0L40.989,8.28a2.887,2.887,0,0,1,0,4.144l-3.42,3.348q.331.689.6,1.411H43a2.967,2.967,0,0,1,3,2.932v4.774a2.967,2.967,0,0,1-3,2.931H38.162q-.265.721-.6,1.411l3.421,3.348a2.888,2.888,0,0,1,0,4.145L37.537,40.1a3.046,3.046,0,0,1-4.236,0l-3.423-3.348c-.469.216-.951.411-1.442.582v4.736a2.968,2.968,0,0,1-3,2.932M15.867,33.874a1.342,1.342,0,0,1,.64.161,13.557,13.557,0,0,0,2.747,1.111,1.3,1.3,0,0,1,.957,1.244v5.678a.347.347,0,0,0,.349.342h4.88a.347.347,0,0,0,.349-.342V36.391a1.3,1.3,0,0,1,.957-1.244,13.589,13.589,0,0,0,2.749-1.111,1.347,1.347,0,0,1,1.576.218l4.1,4.013a.357.357,0,0,0,.494,0l3.45-3.376a.337.337,0,0,0,0-.483l-4.1-4.013a1.275,1.275,0,0,1-.222-1.542,12.91,12.91,0,0,0,1.136-2.689,1.322,1.322,0,0,1,1.273-.935H43a.344.344,0,0,0,.348-.341V20.113A.344.344,0,0,0,43,19.772H37.2a1.321,1.321,0,0,1-1.273-.935,12.91,12.91,0,0,0-1.136-2.689,1.275,1.275,0,0,1,.222-1.542l4.1-4.014a.336.336,0,0,0,0-.482l-3.45-3.376a.356.356,0,0,0-.494,0l-4.1,4.013a1.347,1.347,0,0,1-1.576.218,13.578,13.578,0,0,0-2.75-1.113,1.3,1.3,0,0,1-.956-1.244V2.931a.346.346,0,0,0-.349-.341H20.56a.346.346,0,0,0-.349.341V8.609a1.3,1.3,0,0,1-.956,1.244,13.52,13.52,0,0,0-2.747,1.112,1.346,1.346,0,0,1-1.577-.218l-4.1-4.013a.355.355,0,0,0-.493,0l-3.45,3.375a.336.336,0,0,0,0,.482l4.1,4.015a1.274,1.274,0,0,1,.223,1.54,13.032,13.032,0,0,0-1.137,2.691,1.321,1.321,0,0,1-1.273.935H3a.341.341,0,0,0-.245.1.329.329,0,0,0-.1.239v4.777A.345.345,0,0,0,3,25.228H8.8a1.322,1.322,0,0,1,1.273.935,13.012,13.012,0,0,0,1.137,2.691,1.274,1.274,0,0,1-.223,1.54l-4.1,4.013a.337.337,0,0,0,0,.483l3.45,3.376a.305.305,0,0,0,.492,0l4.1-4.013a1.343,1.343,0,0,1,.936-.379" transform="translate(0 0)" fill="#fff"/>
    <path id="패스_5134" data-name="패스 5134" d="M29.927,25.372a4.459,4.459,0,1,1-4.458-4.361,4.411,4.411,0,0,1,4.458,4.361" transform="translate(-2.47 -2.873)" fill="#f29f05"/>
    <path id="패스_5135" data-name="패스 5135" d="M25.293,30.823a5.658,5.658,0,1,1,5.782-5.656,5.727,5.727,0,0,1-5.782,5.656m0-8.723a3.067,3.067,0,1,0,3.134,3.066A3.1,3.1,0,0,0,25.293,22.1" transform="translate(-2.293 -2.668)" fill="#fff"/>
  </g>
</svg>
