<svg id="ico08" xmlns="http://www.w3.org/2000/svg" width="90" height="90" viewBox="0 0 90 90">
  <rect id="사각형_2088" data-name="사각형 2088" width="90" height="90" fill="none"/>
  <g id="그룹_7547" data-name="그룹 7547" transform="translate(14780.008 19763.666)">
    <path id="패스_4226" data-name="패스 4226" d="M1428.612,127.3a1.7,1.7,0,0,1-1.192-.549,1.717,1.717,0,0,1,.094-2.426l1.521-1.407H1418.6c-4.146,0-7.9-2.677-7.9-7.9V93.216a1.716,1.716,0,1,1,3.432,0V115.01a4.11,4.11,0,0,0,4.471,4.471h10.373l-1.654-1.33a1.716,1.716,0,0,1,2.149-2.675l5.224,4.2a1.716,1.716,0,0,1,.091,2.6l-4.943,4.57a1.7,1.7,0,0,1-1.234.455m-52.284-4.382a1.716,1.716,0,1,1,0-3.432h18.117c2.517,0,4.471-1.364,4.471-4.471V97.068l-1.339,1.663a1.717,1.717,0,0,1-1.318.643,1.7,1.7,0,0,1-1.094-.38,1.716,1.716,0,0,1-.263-2.412l4.2-5.222a1.716,1.716,0,0,1,2.6-.092l4.567,4.943a1.717,1.717,0,0,1-2.52,2.332l-1.4-1.51V115.01c0,5.247-3.739,7.9-7.9,7.9Z" transform="translate(-16139.867 -19813.285)" fill="#320051"/>
    <path id="패스_4227" data-name="패스 4227" d="M1357.017,51.141c-.034,0-.092,0-.126,0l-.151-.012a13.057,13.057,0,0,1-3.478-25.139l1.851-.55.188-1.222a12.977,12.977,0,0,1,12.7-10.357,13.229,13.229,0,0,1,2.609.263c.057.012.114.027.169.043l.387.121,1.1-2.149A20.342,20.342,0,0,1,1409.9,20.6c0,.016,0,.069.007.087l0,.121,1.35.068a15.3,15.3,0,0,1,13.725,15.206,15.084,15.084,0,0,1-13.755,15l-.634.046a1.145,1.145,0,0,1-.126,0h-5.97a1.716,1.716,0,0,1,0-3.432h6.435a11.705,11.705,0,0,0,10.618-11.622,11.865,11.865,0,0,0-11.854-11.854,12.033,12.033,0,0,0-1.222.064l-.645-.046a1.719,1.719,0,0,1-1.266-1.572l-.089-1.753-.231-1.551a16.912,16.912,0,0,0-31.048-5.458l-1.108,2.165-.329.9a1.718,1.718,0,0,1-2.121,1.048l-1.757-.542-1.883-.194a9.549,9.549,0,0,0-9.54,9.535l-.068.616a1.717,1.717,0,0,1-1.462,1.192l-.879.089-1.538.458a9.623,9.623,0,0,0,2.54,18.524l9.7,0a1.716,1.716,0,1,1,0,3.432Z" transform="translate(-16120 -19754.004)" fill="#a265ca"/>
  </g>
</svg>
