<svg id="ico05_off" xmlns="http://www.w3.org/2000/svg" xmlns:xlink="http://www.w3.org/1999/xlink" width="45" height="45" viewBox="0 0 45 45">
  <defs>
    <clipPath id="clip-path">
      <rect id="사각형_2664" data-name="사각형 2664" width="43.332" height="45" fill="none"/>
    </clipPath>
  </defs>
  <rect id="사각형_2665" data-name="사각형 2665" width="45" height="45" fill="none"/>
  <g id="main-icon_5" data-name="main-icon 5" transform="translate(1)" clip-path="url(#clip-path)">
    <path id="패스_5082" data-name="패스 5082" d="M44.117,9.477a3.9,3.9,0,0,1-3.9,3.9h-18.7a3.9,3.9,0,0,1,0-7.794h18.7a3.9,3.9,0,0,1,3.9,3.9" transform="translate(-2.106 -0.667)"/>
    <path id="패스_5083" data-name="패스 5083" d="M40.041,14.515h-18.7a5.218,5.218,0,0,1,0-10.435h18.7a5.218,5.218,0,1,1,0,10.435m-18.7-7.794a2.576,2.576,0,0,0,0,5.153h18.7a2.576,2.576,0,1,0,0-5.153Z" transform="translate(-1.927 -0.488)" fill="#fff"/>
    <path id="패스_5084" data-name="패스 5084" d="M41.339,30.379a1.321,1.321,0,0,1-1.321-1.321V14.253a1.321,1.321,0,1,1,2.641,0V29.059a1.321,1.321,0,0,1-1.321,1.321" transform="translate(-4.783 -1.546)" fill="#fff"/>
    <path id="패스_5085" data-name="패스 5085" d="M25.738,39.454H11.809L3.237,12.975h13.93Z" transform="translate(-0.387 -1.551)"/>
    <path id="패스_5086" data-name="패스 5086" d="M25.559,40.6H11.63a1.322,1.322,0,0,1-1.257-.914L1.8,13.2a1.32,1.32,0,0,1,1.256-1.727h13.93a1.321,1.321,0,0,1,1.256.914l8.571,26.479A1.32,1.32,0,0,1,25.559,40.6M12.591,37.954H23.744L16.026,14.116H4.873Z" transform="translate(-0.208 -1.372)" fill="#fff"/>
    <path id="패스_5087" data-name="패스 5087" d="M18.8,10.148A8.648,8.648,0,1,1,10.149,1.5,8.647,8.647,0,0,1,18.8,10.148" transform="translate(-0.179 -0.18)"/>
    <path id="패스_5088" data-name="패스 5088" d="M9.969,19.938a9.969,9.969,0,1,1,9.968-9.97,9.981,9.981,0,0,1-9.968,9.97m0-17.3A7.328,7.328,0,1,0,17.3,9.969,7.335,7.335,0,0,0,9.969,2.641" transform="translate(0 0)" fill="#f29f05"/>
    <path id="패스_5089" data-name="패스 5089" d="M13.5,10.979a2.526,2.526,0,1,1-2.525-2.524A2.526,2.526,0,0,1,13.5,10.979" transform="translate(-1.01 -1.011)"/>
    <path id="패스_5090" data-name="패스 5090" d="M10.8,14.647A3.846,3.846,0,1,1,14.646,10.8,3.851,3.851,0,0,1,10.8,14.647m0-5.05A1.2,1.2,0,1,0,12,10.8a1.206,1.206,0,0,0-1.2-1.2" transform="translate(-0.831 -0.832)" fill="#fff"/>
    <path id="패스_5091" data-name="패스 5091" d="M32.863,45.048a3.391,3.391,0,0,0-3.391-3.392H7.324a3.39,3.39,0,0,0-3.389,3.392v3.612H32.863Z" transform="translate(-0.47 -4.979)"/>
    <path id="패스_5092" data-name="패스 5092" d="M32.684,49.8H3.756a1.321,1.321,0,0,1-1.321-1.321V44.867a4.716,4.716,0,0,1,4.711-4.711H29.294A4.716,4.716,0,0,1,34,44.867v3.612A1.321,1.321,0,0,1,32.684,49.8M5.076,47.158H31.363V44.867a2.072,2.072,0,0,0-2.069-2.07H7.146a2.072,2.072,0,0,0-2.069,2.07Z" transform="translate(-0.291 -4.8)" fill="#fff"/>
  </g>
</svg>
