<svg id="ico10" xmlns="http://www.w3.org/2000/svg" width="90" height="90" viewBox="0 0 90 90">
  <rect id="사각형_2090" data-name="사각형 2090" width="90" height="90" fill="none"/>
  <g id="그룹_7549" data-name="그룹 7549" transform="translate(15673.882 19764)">
    <path id="패스_4214" data-name="패스 4214" d="M463.778,47.319c-.033,0-.089,0-.122,0l-.147-.011a12.659,12.659,0,0,1-3.372-24.373l1.795-.532.182-1.185a12.582,12.582,0,0,1,12.317-10.041,12.825,12.825,0,0,1,2.529.255c.056.011.111.026.164.042l.375.117,1.067-2.083a19.722,19.722,0,0,1,36.486,8.206c0,.016,0,.067.007.084l0,.118,1.309.066A14.833,14.833,0,0,1,529.68,32.723,14.624,14.624,0,0,1,516.344,47.27l-.615.044a1.113,1.113,0,0,1-.122,0H513.6a1.664,1.664,0,0,1,0-3.328h2.458a11.349,11.349,0,0,0,10.294-11.268A11.5,11.5,0,0,0,514.86,21.23a11.652,11.652,0,0,0-1.185.062l-.626-.044a1.667,1.667,0,0,1-1.227-1.524l-.087-1.7-.224-1.5a16.4,16.4,0,0,0-30.1-5.291l-1.074,2.1-.32.872a1.666,1.666,0,0,1-2.057,1.016l-1.7-.526-1.826-.188a9.258,9.258,0,0,0-9.249,9.245l-.066.6A1.665,1.665,0,0,1,463.7,25.5l-.852.087-1.491.444a9.329,9.329,0,0,0,2.462,17.959l2.194,0a1.664,1.664,0,0,1,0,3.328Z" transform="translate(-16120 -19754.004)" fill="#a265ca"/>
    <path id="패스_4215" data-name="패스 4215" d="M469.235,164.121A6.831,6.831,0,1,1,471.891,151l.97.526,5.832-4.024v-7.25a1.664,1.664,0,1,1,3.328,0v8.122a1.666,1.666,0,0,1-.721,1.371l-6.13,4.231.357.661a6.827,6.827,0,0,1-6.292,9.487m20.6,0a6.831,6.831,0,0,1-1.378-13.522h.011l-.025-.255v-9.809a1.664,1.664,0,0,1,3.328,0v9.809a1.678,1.678,0,0,1-.035.337l-.022.075.776.242a6.83,6.83,0,0,1-2.656,13.123m15.322,0A6.831,6.831,0,0,1,502.5,151l.734-.229-.026-.089a1.677,1.677,0,0,1-.034-.337v-9.809a1.664,1.664,0,0,1,3.328,0v9.809l-.026.248.06.007a6.831,6.831,0,0,1-1.376,13.522m16.8,0a6.829,6.829,0,0,1-5.271-11.173l.337-.373-4.182-6.108a1.551,1.551,0,0,1-.273-.885v-5.766a1.564,1.564,0,1,1,3.128,0V145.1l3.949,5.771.28-.1a6.831,6.831,0,1,1,2.032,13.354m-52.727-3.328a3.5,3.5,0,1,0-3.5-3.5,3.508,3.508,0,0,0,3.5,3.5m20.6,0a3.5,3.5,0,1,0-3.5-3.5,3.508,3.508,0,0,0,3.5,3.5m15.322,0a3.5,3.5,0,1,0-3.5-3.5,3.508,3.508,0,0,0,3.5,3.5m16.8,0a3.5,3.5,0,1,0-3.5-3.5,3.508,3.508,0,0,0,3.5,3.5" transform="translate(-16127.002 -19848.121)" fill="#432a55"/>
  </g>
</svg>
