<svg id="icon05" xmlns="http://www.w3.org/2000/svg" xmlns:xlink="http://www.w3.org/1999/xlink" width="120" height="120" viewBox="0 0 120 120">
  <defs>
    <clipPath id="clip-path">
      <rect id="사각형_149" data-name="사각형 149" width="120" height="120" fill="#00fff6"/>
    </clipPath>
    <clipPath id="clip-path-2">
      <rect id="사각형_144" data-name="사각형 144" width="120" height="120" fill="#a265ca"/>
    </clipPath>
  </defs>
  <g id="마스크_그룹_18" data-name="마스크 그룹 18" clip-path="url(#clip-path)">
    <g id="그룹_161" data-name="그룹 161">
      <g id="그룹_160" data-name="그룹 160" clip-path="url(#clip-path-2)">
        <path id="패스_3310" data-name="패스 3310" d="M293.373,105.344a4.513,4.513,0,0,0,4.316-3.252c.34-1.185.583-2.4,1.742-3.068s2.338-.271,3.532.026a4.511,4.511,0,0,0,4.97-2.114l2.71-4.7a4.506,4.506,0,0,0-.655-5.366c-.855-.887-1.78-1.7-1.783-3.043s.93-2.157,1.781-3.041a4.506,4.506,0,0,0,.659-5.364l-2.711-4.7a4.512,4.512,0,0,0-4.974-2.114c-1.2.3-2.366.692-3.529.025s-1.4-1.889-1.743-3.071a4.512,4.512,0,0,0-4.315-3.248h-5.426a4.514,4.514,0,0,0-4.318,3.251c-.34,1.185-.583,2.4-1.741,3.068s-2.339.271-3.533-.026a4.512,4.512,0,0,0-4.968,2.114l-2.715,4.7a4.51,4.51,0,0,0,.658,5.361c.856.887,1.782,1.7,1.786,3.044s-.93,2.157-1.784,3.041a4.512,4.512,0,0,0-.658,5.365l2.713,4.7a4.512,4.512,0,0,0,4.974,2.115c1.2-.3,2.366-.692,3.528-.026s1.4,1.889,1.742,3.071a4.514,4.514,0,0,0,4.317,3.249h5.425ZM278.564,94.168l-1.19.3-2.566-4.442c1.706-1.764,3.005-3.628,3-6.191s-1.3-4.425-3.005-6.19l2.566-4.442c2.377.592,4.645.788,6.863-.492s3.183-3.344,3.858-5.7h5.13c.676,2.355,1.639,4.419,3.859,5.7s4.487,1.083,6.865.491l2.564,4.443c-1.732,1.8-3.047,3.711-3,6.326.045,2.507,1.336,4.329,3,6.055l-2.564,4.442c-2.377-.592-4.646-.788-6.865.492s-3.183,3.344-3.858,5.7h-5.13A9.292,9.292,0,0,0,285.3,95.7,7.683,7.683,0,0,0,278.564,94.168Z" transform="translate(-206.778 -47.713)" fill="#f29f05"/>
        <path id="패스_3311" data-name="패스 3311" d="M338.688,126.425a8.473,8.473,0,1,0-8.473,8.473,8.483,8.483,0,0,0,8.473-8.473m-12.258,0a3.785,3.785,0,1,1,3.785,3.785,3.791,3.791,0,0,1-3.785-3.785" transform="translate(-246.334 -90.305)" fill="#f29f05"/>
        <path id="패스_3312" data-name="패스 3312" d="M118.433,329.873a8.473,8.473,0,1,0,8.473-8.472,8.482,8.482,0,0,0-8.473,8.472m12.258,0a3.785,3.785,0,1,1-3.785-3.785,3.789,3.789,0,0,1,3.785,3.785" transform="translate(-90.675 -246.073)" fill="#f29f05"/>
        <path id="패스_3313" data-name="패스 3313" d="M94.755,270.346l-.38-1.325a4.512,4.512,0,0,0-4.317-3.25H84.632a4.511,4.511,0,0,0-4.315,3.252c-.34,1.185-.584,2.394-1.742,3.067s-2.335.273-3.527-.023a4.506,4.506,0,0,0-4.975,2.113l-2.711,4.7a4.506,4.506,0,0,0,.654,5.359c.855.888,1.784,1.707,1.787,3.046s-.933,2.158-1.784,3.042a4.511,4.511,0,0,0-.658,5.364l2.712,4.7a4.506,4.506,0,0,0,4.968,2.111c1.2-.3,2.372-.692,3.534-.024s1.4,1.887,1.742,3.068a4.511,4.511,0,0,0,4.315,3.25h5.426a4.512,4.512,0,0,0,4.317-3.251c.34-1.184.584-2.394,1.742-3.067s2.334-.272,3.526.022a4.51,4.51,0,0,0,4.973-2.11l2.715-4.7a4.51,4.51,0,0,0-.658-5.361c-.821-.851-1.73-1.636-1.786-2.914-.062-1.4.9-2.255,1.785-3.173a4.507,4.507,0,0,0,.658-5.362l-2.713-4.7a4.507,4.507,0,0,0-4.974-2.114C97.729,272.542,95.441,272.732,94.755,270.346Zm4.686,6.6,1.191-.3,2.565,4.441c-1.7,1.766-3.005,3.627-3.005,6.191s1.3,4.426,3.006,6.192l-2.565,4.44c-2.378-.589-4.646-.787-6.865.494s-3.181,3.343-3.858,5.7h-5.13c-.676-2.354-1.639-4.417-3.857-5.7s-4.487-1.081-6.867-.493l-2.562-4.441c1.7-1.768,3.006-3.626,3.006-6.191s-1.3-4.424-3.006-6.191l2.563-4.441c2.378.591,4.647.788,6.866-.494s3.182-3.343,3.857-5.7h5.13a9.3,9.3,0,0,0,3.125,5.216A7.736,7.736,0,0,0,99.441,276.946Z" transform="translate(-51.116 -203.48)" fill="#f29f05"/>
        <path id="패스_3314" data-name="패스 3314" d="M64.264,258.727a2.344,2.344,0,0,0-3.288.417,31.431,31.431,0,1,1-24.857-50.666,31.607,31.607,0,0,1,7.056.685,2.344,2.344,0,0,0,1.061-4.566,36.283,36.283,0,0,0-8.117-.806A36.118,36.118,0,1,0,64.68,262.016a2.344,2.344,0,0,0-.417-3.289" transform="translate(0 -156.027)" fill="#fff"/>
        <path id="패스_3315" data-name="패스 3315" d="M276.027,36.118A36.118,36.118,0,1,0,214.514,61.8a31.675,31.675,0,0,1,9.062,22.079c0,.457-.011.927-.034,1.439a2.344,2.344,0,0,0,2.236,2.447l.107,0a2.344,2.344,0,0,0,2.34-2.239c.026-.582.039-1.122.039-1.649,0-9.283-3.712-19.242-10.651-25.609A31.431,31.431,0,1,1,242.4,67.451l2.218-2.218a2.344,2.344,0,0,0-3.315-3.315l-6.176,6.176a2.365,2.365,0,0,0,0,3.315l6.247,6.247a2.344,2.344,0,1,0,3.315-3.315l-2.2-2.2a36.165,36.165,0,0,0,33.535-36.025" transform="translate(-156.027)" fill="#fff"/>
        <path id="패스_3316" data-name="패스 3316" d="M283.6,398.015a2.342,2.342,0,1,0-.906,2.872,2.361,2.361,0,0,0,.906-2.872" transform="translate(-213.682 -303.623)" fill="#fff"/>
      </g>
    </g>
  </g>
</svg>
