<svg id="icon03" xmlns="http://www.w3.org/2000/svg" xmlns:xlink="http://www.w3.org/1999/xlink" width="120" height="120" viewBox="0 0 120 120">
  <defs>
    <clipPath id="clip-path">
      <rect id="사각형_147" data-name="사각형 147" width="120" height="120" fill="#00fff6"/>
    </clipPath>
    <clipPath id="clip-path-2">
      <rect id="사각형_143" data-name="사각형 143" width="120" height="120" fill="#a265ca"/>
    </clipPath>
  </defs>
  <g id="마스크_그룹_16" data-name="마스크 그룹 16" clip-path="url(#clip-path)">
    <g id="그룹_159" data-name="그룹 159">
      <g id="그룹_158" data-name="그룹 158" clip-path="url(#clip-path-2)">
        <path id="패스_3288" data-name="패스 3288" d="M177.412,24.334a14,14,0,1,0-18.824,0A18.023,18.023,0,0,0,144,42v8a2,2,0,0,0,2,2h44a2,2,0,0,0,2-2V42a18.023,18.023,0,0,0-14.588-17.666M158,14a10,10,0,1,1,10,10,10.011,10.011,0,0,1-10-10m30,34H148V42a14.017,14.017,0,0,1,14-14h12a14.017,14.017,0,0,1,14,14Z" transform="translate(-108)" fill="#fff"/>
        <path id="패스_3289" data-name="패스 3289" d="M33.412,296.334a14,14,0,1,0-18.824,0A18.023,18.023,0,0,0,0,314v8a2,2,0,0,0,2,2H46a2,2,0,0,0,2-2v-8a18.023,18.023,0,0,0-14.588-17.666M14,286a10,10,0,1,1,10,10,10.011,10.011,0,0,1-10-10m30,34H4v-6a14.016,14.016,0,0,1,14-14H30a14.016,14.016,0,0,1,14,14Z" transform="translate(0 -204)" fill="#fff"/>
        <path id="패스_3290" data-name="패스 3290" d="M321.412,296.334a14,14,0,1,0-18.824,0A18.023,18.023,0,0,0,288,314v8a2,2,0,0,0,2,2h44a2,2,0,0,0,2-2v-8a18.023,18.023,0,0,0-14.588-17.666M302,286a10,10,0,1,1,10,10,10.011,10.011,0,0,1-10-10m30,34H292v-6a14.016,14.016,0,0,1,14-14h12a14.016,14.016,0,0,1,14,14Z" transform="translate(-216 -204)" fill="#fff"/>
        <g id="그룹_8594" data-name="그룹 8594">
          <path id="패스_3291" data-name="패스 3291" d="M36.164,255.744l-4,.156c.054,1.378.164,2.774.328,4.146l3.972-.476c-.152-1.266-.254-2.554-.3-3.826" transform="translate(-24.125 -191.809)" fill="#f29f05"/>
          <path id="패스_3292" data-name="패스 3292" d="M32.494,223.176c-.162,1.364-.274,2.758-.326,4.144l4,.156c.05-1.28.152-2.566.3-3.828Z" transform="translate(-24.125 -167.383)" fill="#f29f05"/>
          <path id="패스_3293" data-name="패스 3293" d="M104.294,82.544c-1.094.834-2.172,1.726-3.206,2.654l2.674,2.976c.952-.856,1.946-1.68,2.956-2.448Z" transform="translate(-75.816 -61.908)" fill="#f29f05"/>
          <path id="패스_3294" data-name="패스 3294" d="M46.876,159.44c-.588,1.25-1.132,2.538-1.62,3.836L49,164.682c.45-1.2.952-2.384,1.494-3.534Z" transform="translate(-33.941 -119.58)" fill="#f29f05"/>
          <path id="패스_3295" data-name="패스 3295" d="M37.072,190.584c-.38,1.322-.71,2.684-.984,4.04l3.922.79c.252-1.25.556-2.506.908-3.728Z" transform="translate(-27.066 -142.938)" fill="#f29f05"/>
          <path id="패스_3296" data-name="패스 3296" d="M80.95,104.776c-.958,1.008-1.878,2.058-2.742,3.124l3.11,2.516c.8-.984,1.648-1.956,2.532-2.886Z" transform="translate(-58.656 -78.582)" fill="#f29f05"/>
          <path id="패스_3297" data-name="패스 3297" d="M131.1,64.568c-1.21.646-2.416,1.356-3.588,2.11l2.168,3.364c1.08-.7,2.192-1.352,3.3-1.946Z" transform="translate(-95.635 -48.426)" fill="#f29f05"/>
          <path id="패스_3298" data-name="패스 3298" d="M61.636,130.6c-.782,1.142-1.526,2.326-2.212,3.524l3.47,1.988c.632-1.1,1.32-2.2,2.042-3.25Z" transform="translate(-44.568 -97.949)" fill="#f29f05"/>
          <path id="패스_3299" data-name="패스 3299" d="M199.726,436.256l-.79,3.922c1.346.272,2.73.49,4.112.652l.464-3.972c-1.27-.15-2.546-.352-3.786-.6" transform="translate(-149.201 -327.191)" fill="#f29f05"/>
          <path id="패스_3300" data-name="패스 3300" d="M267.032,436.16c-1.242.252-2.516.458-3.792.614l.482,3.972c1.38-.167,2.76-.392,4.1-.664Z" transform="translate(-197.43 -327.121)" fill="#f29f05"/>
          <path id="패스_3301" data-name="패스 3301" d="M235.95,439.84c-1.278.05-2.57.056-3.84.006l-.158,4q1,.042,2.018.04,1.074-.006,2.14-.046Z" transform="translate(-173.965 -329.881)" fill="#f29f05"/>
          <path id="패스_3302" data-name="패스 3302" d="M370.928,93.224,368.256,96.2c.952.856,1.876,1.756,2.75,2.676l2.9-2.75c-.948-1-1.95-1.976-2.982-2.9" transform="translate(-276.191 -69.918)" fill="#f29f05"/>
          <path id="패스_3303" data-name="패스 3303" d="M392.494,117.32l-3.11,2.516c.8.986,1.57,2.024,2.294,3.08l3.3-2.262c-.784-1.142-1.618-2.264-2.482-3.334" transform="translate(-292.039 -87.99)" fill="#f29f05"/>
          <path id="패스_3304" data-name="패스 3304" d="M435.844,239.776l-4,.156c.026.63.038,1.266.038,1.9,0,.65-.012,1.3-.038,1.942l4,.156q.042-1.044.042-2.1c0-.686-.014-1.372-.042-2.052" transform="translate(-323.887 -179.832)" fill="#f29f05"/>
          <path id="패스_3305" data-name="패스 3305" d="M410.192,144.736l-3.472,1.99c.634,1.106,1.23,2.252,1.774,3.4l3.618-1.708c-.588-1.248-1.234-2.488-1.92-3.686" transform="translate(-305.039 -108.553)" fill="#f29f05"/>
          <path id="패스_3306" data-name="패스 3306" d="M423.528,174.816l-3.744,1.408c.448,1.192.852,2.418,1.2,3.642l3.846-1.1c-.38-1.328-.82-2.656-1.306-3.948" transform="translate(-314.838 -131.111)" fill="#f29f05"/>
          <path id="패스_3307" data-name="패스 3307" d="M432.144,206.776l-3.92.788c.252,1.252.456,2.528.6,3.792l3.972-.472c-.162-1.368-.382-2.75-.656-4.108" transform="translate(-321.168 -155.082)" fill="#f29f05"/>
          <path id="패스_3308" data-name="패스 3308" d="M346.038,73.04,343.872,76.4c1.068.688,2.124,1.43,3.142,2.208l2.428-3.182c-1.1-.842-2.246-1.644-3.4-2.39" transform="translate(-257.904 -54.779)" fill="#f29f05"/>
          <path id="패스_3309" data-name="패스 3309" d="M318.426,57.328l-1.6,3.664c1.166.51,2.326,1.074,3.452,1.678l1.892-3.524c-1.218-.656-2.478-1.268-3.742-1.818" transform="translate(-237.617 -42.996)" fill="#f29f05"/>
        </g>
      </g>
    </g>
  </g>
</svg>
