<svg id="icon02" xmlns="http://www.w3.org/2000/svg" xmlns:xlink="http://www.w3.org/1999/xlink" width="120" height="120" viewBox="0 0 120 120">
  <defs>
    <clipPath id="clip-path">
      <rect id="사각형_146" data-name="사각형 146" width="120" height="120" fill="#00fff6"/>
    </clipPath>
    <clipPath id="clip-path-2">
      <rect id="사각형_138" data-name="사각형 138" width="120" height="120" fill="#fff"/>
    </clipPath>
  </defs>
  <g id="마스크_그룹_15" data-name="마스크 그룹 15" clip-path="url(#clip-path)">
    <g id="그룹_153" data-name="그룹 153">
      <g id="그룹_152" data-name="그룹 152" clip-path="url(#clip-path-2)">
        <path id="패스_3257" data-name="패스 3257" d="M68.978,359.59l-12.047-3.6a6.018,6.018,0,0,0-7.753,5.749v4.623a6.018,6.018,0,0,0,6.023,6H67.248a6.019,6.019,0,0,0,6.024-6v-1.024a5.967,5.967,0,0,0-4.294-5.748m.279,6.771a2.006,2.006,0,0,1-2.008,2H55.2a2.005,2.005,0,0,1-2.008-2v-4.623a2,2,0,0,1,2.584-1.916l12.048,3.6a1.987,1.987,0,0,1,1.431,1.916Z" transform="translate(-37.605 -272.361)" fill="#fff"/>
        <path id="패스_3258" data-name="패스 3258" d="M305.177,365.338v1.023a6.018,6.018,0,0,0,6.023,6h12.047a6.019,6.019,0,0,0,6.024-6v-4.623a6.02,6.02,0,0,0-7.753-5.749l-12.047,3.6a5.967,5.967,0,0,0-4.294,5.748m5.447-1.916,12.047-3.6a2.007,2.007,0,0,1,2.585,1.917v4.623a2.006,2.006,0,0,1-2.009,2H311.2a2.005,2.005,0,0,1-2.007-2v-1.023a1.985,1.985,0,0,1,1.431-1.916" transform="translate(-233.367 -272.362)" fill="#fff"/>
        <path id="패스_3259" data-name="패스 3259" d="M192.737,375.465H172.658a4.014,4.014,0,0,0-4.016,4v4a4.013,4.013,0,0,0,4.016,4h20.079a4.015,4.015,0,0,0,4.017-4v-4a4.015,4.015,0,0,0-4.017-4m-20.079,8v-4h20.079l0,4Z" transform="translate(-128.959 -287.465)" fill="#fff"/>
        <path id="패스_3260" data-name="패스 3260" d="M107.952,0H51.73A12.038,12.038,0,0,0,39.682,12V24.814A104.512,104.512,0,0,0,28.111,26.75a9.954,9.954,0,0,0-7.55,7.428L14.864,58H9.282A7.993,7.993,0,0,0,2.1,62.422L.641,65.32A5.991,5.991,0,0,0,6.029,74H9.563L7.151,77.2a8.05,8.05,0,0,0-1.6,4.8v32a6.019,6.019,0,0,0,6.024,6H21.611a6.019,6.019,0,0,0,6.024-6v-4H79.841v4a6.018,6.018,0,0,0,6.023,6H95.9a6.019,6.019,0,0,0,6.024-6V82a8.047,8.047,0,0,0-1.607-4.8L97.913,74h3.533a5.989,5.989,0,0,0,5.391-8.674l-1.457-2.905A8,8,0,0,0,98.2,58H92.606l-.85-3.549L96.4,52h11.549A12.037,12.037,0,0,0,120,40V12A12.037,12.037,0,0,0,107.952,0M60.472,69.525a2.013,2.013,0,0,0,2.237.243l17.984-9.484,2.75,11.6A206.321,206.321,0,0,1,53.738,74a208.621,208.621,0,0,1-29.69-2.1l7.924-33.7c2.384-.51,5-.92,7.71-1.271V40A12.038,12.038,0,0,0,51.731,52H65.007l-5.14,15.367a1.991,1.991,0,0,0,.6,2.158M4.308,69.049a1.948,1.948,0,0,1-.077-1.934l1.457-2.9A4,4,0,0,1,9.281,62h4.626l-1.914,8H6.029a2,2,0,0,1-1.721-.951M98.2,62a4,4,0,0,1,3.593,2.211l1.459,2.91a1.944,1.944,0,0,1-.078,1.928,2,2,0,0,1-1.722.951H95.481l-1.916-8ZM91.944,72.463l0,.007c.009.038.035.071.047.108.005.02.017.037.024.056a1.9,1.9,0,0,0,.119.278,2.135,2.135,0,0,0,.131.237c.011.015.012.035.024.05l4.819,6.4a4.037,4.037,0,0,1,.8,2.4v32a2.006,2.006,0,0,1-2.008,2H85.865a2,2,0,0,1-2.007-2v-4a4.014,4.014,0,0,0-4.016-4H27.635a4.013,4.013,0,0,0-4.016,4v4a2.006,2.006,0,0,1-2.008,2H11.571a2.006,2.006,0,0,1-2.009-2V82a4.032,4.032,0,0,1,.8-2.4l4.818-6.4c.012-.015.014-.035.025-.05a1.967,1.967,0,0,0,.129-.236,1.943,1.943,0,0,0,.12-.279c.006-.02.017-.036.024-.055.011-.037.037-.071.046-.109l0-.006L24.47,35.1a5.971,5.971,0,0,1,4.539-4.451,100.393,100.393,0,0,1,10.673-1.777V32.89c-3.013.376-5.908.829-8.557,1.4a3.951,3.951,0,0,0-3.035,2.978l-7.944,33.7a3.96,3.96,0,0,0,3.3,4.877A210.4,210.4,0,0,0,53.738,78a210.257,210.257,0,0,0,30.274-2.16,3.961,3.961,0,0,0,3.326-4.858L84.359,58.351l3.731-1.968ZM115.984,40a8.023,8.023,0,0,1-8.032,8H95.9a2.012,2.012,0,0,0-.939.232L65.26,63.9,69.7,50.633A2,2,0,0,0,67.794,48H51.73A8.024,8.024,0,0,1,43.7,40V12A8.024,8.024,0,0,1,51.73,4h56.223a8.024,8.024,0,0,1,8.032,8Z" transform="translate(0)" fill="#fff"/>
        <path id="패스_3261" data-name="패스 3261" d="M383.982,68.266a2,2,0,0,0-2.008,2v16a2.008,2.008,0,0,0,4.016,0v-16a2,2,0,0,0-2.007-2" transform="translate(-292.093 -52.266)" fill="#f29f05"/>
        <path id="패스_3262" data-name="패스 3262" d="M281.583,68.266a2,2,0,0,0-2.008,2v16a2.008,2.008,0,0,0,4.016,0v-16a2,2,0,0,0-2.007-2" transform="translate(-213.789 -52.266)" fill="#f29f05"/>
        <path id="패스_3263" data-name="패스 3263" d="M349.849,34.133a2,2,0,0,0-2.008,2v34a2.008,2.008,0,0,0,4.016,0v-34a2,2,0,0,0-2.007-2" transform="translate(-265.992 -26.133)" fill="#f29f05"/>
        <path id="패스_3264" data-name="패스 3264" d="M315.716,34.133a2,2,0,0,0-2.008,2v34a2.008,2.008,0,0,0,4.016,0v-34a2,2,0,0,0-2.007-2" transform="translate(-239.89 -26.133)" fill="#f29f05"/>
        <path id="패스_3265" data-name="패스 3265" d="M247.449,93.867a2,2,0,0,0-2.007,2v4a2.008,2.008,0,0,0,4.016,0v-4a2,2,0,0,0-2.008-2" transform="translate(-187.688 -71.867)" fill="#f29f05"/>
        <path id="패스_3266" data-name="패스 3266" d="M213.317,76.8a2,2,0,0,0-2.007,2v12a2.008,2.008,0,0,0,4.016,0v-12a2,2,0,0,0-2.008-2" transform="translate(-161.587 -58.801)" fill="#f29f05"/>
        <path id="패스_3267" data-name="패스 3267" d="M452.25,76.8a2,2,0,0,0-2.007,2v12a2.008,2.008,0,0,0,4.016,0v-12a2,2,0,0,0-2.008-2" transform="translate(-344.298 -58.801)" fill="#f29f05"/>
        <path id="패스_3268" data-name="패스 3268" d="M418.117,93.867a2,2,0,0,0-2.007,2v4a2.008,2.008,0,0,0,4.016,0v-4a2,2,0,0,0-2.008-2" transform="translate(-318.197 -71.867)" fill="#f29f05"/>
      </g>
    </g>
  </g>
</svg>
