<svg id="icon01" xmlns="http://www.w3.org/2000/svg" xmlns:xlink="http://www.w3.org/1999/xlink" width="120" height="120" viewBox="0 0 120 120">
  <defs>
    <clipPath id="clip-path">
      <rect id="사각형_145" data-name="사각형 145" width="120" height="120" fill="#00fff6"/>
    </clipPath>
    <clipPath id="clip-path-2">
      <rect id="사각형_141" data-name="사각형 141" width="120" height="109.846" fill="#fff"/>
    </clipPath>
  </defs>
  <g id="마스크_그룹_14" data-name="마스크 그룹 14" clip-path="url(#clip-path)">
    <g id="그룹_155" data-name="그룹 155" transform="translate(0 5.077)">
      <g id="그룹_154" data-name="그룹 154" clip-path="url(#clip-path-2)">
        <path id="패스_3269" data-name="패스 3269" d="M128.757,297.246H22.471a1.715,1.715,0,0,1-1.714-1.716V278.366a15.438,15.438,0,0,1,15.429-15.447h78.857a15.438,15.438,0,0,1,15.429,15.447V295.53a1.715,1.715,0,0,1-1.714,1.716M24.186,293.813H127.043V278.366a12.007,12.007,0,0,0-12-12.015H36.186a12.007,12.007,0,0,0-12,12.015Z" transform="translate(-15.614 -197.698)" fill="#fff"/>
        <path id="패스_3270" data-name="패스 3270" d="M364.8,401.191H351.089a5.146,5.146,0,0,1-5.143-5.149v-6.866a1.715,1.715,0,0,1,1.714-1.716h20.571a1.715,1.715,0,0,1,1.714,1.716v6.866a5.146,5.146,0,0,1-5.143,5.149m-15.428-10.3v5.149a1.715,1.715,0,0,0,1.714,1.716H364.8a1.715,1.715,0,0,0,1.714-1.716v-5.149Z" transform="translate(-260.232 -291.345)" fill="#fff"/>
        <path id="패스_3271" data-name="패스 3271" d="M60.37,401.191H46.656a5.146,5.146,0,0,1-5.143-5.149v-6.866a1.715,1.715,0,0,1,1.714-1.716H63.8a1.715,1.715,0,0,1,1.714,1.716v6.866a5.146,5.146,0,0,1-5.143,5.149m-15.429-10.3v5.149a1.715,1.715,0,0,0,1.714,1.716H60.37a1.715,1.715,0,0,0,1.714-1.716v-5.149Z" transform="translate(-31.227 -291.345)" fill="#fff"/>
        <path id="패스_3272" data-name="패스 3272" d="M70.842,314.677a8.582,8.582,0,1,1,8.572-8.582,8.577,8.577,0,0,1-8.572,8.582m0-13.731a5.149,5.149,0,1,0,5.143,5.149,5.146,5.146,0,0,0-5.143-5.149" transform="translate(-46.841 -223.711)" fill="#fff"/>
        <path id="패스_3273" data-name="패스 3273" d="M361.437,314.677a8.582,8.582,0,1,1,8.572-8.582,8.576,8.576,0,0,1-8.572,8.582m0-13.731a5.149,5.149,0,1,0,5.143,5.149,5.146,5.146,0,0,0-5.143-5.149" transform="translate(-265.436 -223.711)" fill="#fff"/>
        <path id="패스_3274" data-name="패스 3274" d="M51.636,191.847l-1.474-3.107c3.12-1.476,4.491-5.355,6.086-9.852,2.074-5.9,4.423-12.6,11.554-16.34a1.291,1.291,0,0,1,.309-.12c1.56-.463,3.171-.893,4.766-1.287l.857,3.347c-1.509.36-3,.755-4.457,1.184-5.811,3.124-7.834,8.839-9.771,14.349C57.7,185.033,56.042,189.822,51.636,191.847Z" transform="translate(-37.733 -121.168)" fill="#fff"/>
        <path id="패스_3275" data-name="패스 3275" d="M361.229,191.847c-4.406-2.094-6.069-6.865-7.834-11.826-1.937-5.51-3.96-11.225-9.771-14.349-1.457-.429-2.949-.824-4.457-1.184l.823-3.347c1.594.395,3.206.824,4.766,1.287a1.292,1.292,0,0,1,.309.12c7.131,3.742,9.48,10.435,11.554,16.34,1.594,4.5,2.966,8.376,6.086,9.852Z" transform="translate(-255.132 -121.168)" fill="#fff"/>
        <path id="패스_3276" data-name="패스 3276" d="M427.135,235.136H416.849a1.715,1.715,0,0,1-1.714-1.716v-10.3a1.716,1.716,0,0,1,1.714-1.716h10.286a5.146,5.146,0,0,1,5.143,5.149v3.433a5.146,5.146,0,0,1-5.143,5.149m-8.572-3.433h8.572a1.715,1.715,0,0,0,1.714-1.716v-3.433a1.715,1.715,0,0,0-1.714-1.716h-8.572Z" transform="translate(-312.278 -166.482)" fill="#fff"/>
        <path id="패스_3277" data-name="패스 3277" d="M15.429,235.136H5.143A5.146,5.146,0,0,1,0,229.987v-3.433a5.146,5.146,0,0,1,5.143-5.149H15.429a1.715,1.715,0,0,1,1.714,1.716v10.3a1.715,1.715,0,0,1-1.714,1.716m-10.286-10.3a1.715,1.715,0,0,0-1.714,1.716v3.433A1.715,1.715,0,0,0,5.143,231.7h8.572v-6.865Z" transform="translate(0 -166.482)" fill="#fff"/>
        <path id="패스_3278" data-name="패스 3278" d="M200.525,117.461a13.722,13.722,0,0,1-13.714-13.731V96.865h3.428v6.865a10.286,10.286,0,1,0,20.572,0V96.865h3.428v6.865a13.722,13.722,0,0,1-13.714,13.731" transform="translate(-140.525 -72.836)" fill="#f29f05"/>
        <path id="패스_3279" data-name="패스 3279" d="M221.343,58.57a6.861,6.861,0,0,1-6.857-6.865V34.541a6.857,6.857,0,1,1,13.714,0V51.7a6.861,6.861,0,0,1-6.857,6.865m0-27.462a3.431,3.431,0,0,0-3.429,3.433V51.7a3.429,3.429,0,1,0,6.857,0V34.541a3.431,3.431,0,0,0-3.429-3.433" transform="translate(-161.343 -20.811)" fill="#f29f05"/>
        <rect id="사각형_139" data-name="사각형 139" width="3.429" height="6.865" transform="translate(58.286 42.909)" fill="#f29f05"/>
        <rect id="사각형_140" data-name="사각형 140" width="13.714" height="3.433" transform="translate(53.143 48.058)" fill="#f29f05"/>
        <path id="패스_3280" data-name="패스 3280" d="M153.683,58.356a29.178,29.178,0,1,1,29.143-29.178,29.16,29.16,0,0,1-29.143,29.178m0-54.923A25.745,25.745,0,1,0,179.4,29.178,25.73,25.73,0,0,0,153.683,3.433" transform="translate(-93.683)" fill="#fff"/>
        <path id="패스_3281" data-name="패스 3281" d="M198.626,321.649H171.2a5.149,5.149,0,0,1,0-10.3h27.429a5.149,5.149,0,0,1,0,10.3M171.2,314.784a1.716,1.716,0,0,0,0,3.433h27.429a1.716,1.716,0,0,0,0-3.433Z" transform="translate(-124.911 -234.116)" fill="#fff"/>
      </g>
    </g>
  </g>
</svg>
