<svg xmlns="http://www.w3.org/2000/svg" xmlns:xlink="http://www.w3.org/1999/xlink" width="110" height="50" viewBox="0 0 110 50">
  <defs>
    <style>
      .cls-1 {
        fill: #fff;
        stroke: #707070;
        opacity: 0.5;
      }

      .cls-2 {
        clip-path: url(#clip-path);
      }

      .cls-3 {
        fill: #3760a7;
      }

      .cls-4 {
        fill: #e43430;
      }
    </style>
    <clipPath id="clip-path">
      <rect id="사각형_2076" data-name="사각형 2076" class="cls-1" width="110" height="50"/>
    </clipPath>
  </defs>
  <g id="마스크_그룹_34" data-name="마스크 그룹 34" class="cls-2">
    <g id="layer1" transform="translate(22 1)">
      <g id="g10142">
        <path id="path10020" class="cls-3" d="M6523.285-6982.483c3.126,0,3.856.154,5.352,1.12a7.148,7.148,0,0,1,2.978,6.217,7.149,7.149,0,0,1-2.978,6.238c-1.608.972-2.293,1.107-5.352,1.107h-5.117v-14.682Zm.416,11.307c1.368,0,2.025-.18,2.515-.7a4.524,4.524,0,0,0,1.053-3.266,4.577,4.577,0,0,0-1.053-3.279c-.529-.531-1.146-.685-2.515-.685h-1.234v7.934Z" transform="translate(-6500.004 7001.598)"/>
        <path id="path10022" class="cls-3" d="M6550.17-6982.22l-.061,2.448c.8-1.979,1.951-2.864,3.7-2.864a4.6,4.6,0,0,1,.825.087v3.783a3.786,3.786,0,0,0-1.094-.12c-2.274,0-3.159,1.127-3.159,4.077v6.942h-4.165v-14.353Z" transform="translate(-6512.21 7001.665)"/>
        <path id="path10024" class="cls-3" d="M6570.177-6982.22l-.061,1.858a4.478,4.478,0,0,1,4.071-2.274,3.846,3.846,0,0,1,3.9,2.509,5,5,0,0,1,4.461-2.509c2.9,0,4.641,1.858,4.641,4.991v9.778h-4.078v-8.035c0-2.187-.616-3.072-2.072-3.072-1.556,0-2.361,1.06-2.361,3.072v8.035h-4.043v-8.156c-.033-1.979-.739-2.952-2.213-2.952-1.509,0-2.24,1.094-2.24,3.307v7.8h-4.084v-14.353Z" transform="translate(-6521.028 7001.665)"/>
        <path id="path10026" class="cls-3" d="M6516.886-7009.626a6.841,6.841,0,0,1,6.841-6.847,6.84,6.84,0,0,1,6.841,6.847,6.839,6.839,0,0,1-6.841,6.841,6.84,6.84,0,0,1-6.841-6.841" transform="translate(-6499.445 7016.473)"/>
        <path id="path10028" class="cls-3" d="M6493.259-6997.144a5.938,5.938,0,0,1,5.936-5.936,5.934,5.934,0,0,1,5.935,5.936,5.932,5.932,0,0,1-5.935,5.935,5.937,5.937,0,0,1-5.936-5.935" transform="translate(-6489.074 7010.621)"/>
        <path id="path10030" class="cls-3" d="M6485.928-6971.451a5.155,5.155,0,0,1,5.158-5.158,5.161,5.161,0,0,1,5.164,5.158,5.167,5.167,0,0,1-5.164,5.164,5.162,5.162,0,0,1-5.158-5.164" transform="translate(-6485.928 6999.065)"/>
        <path id="path10032" class="cls-3" d="M6498.312-6947.556a4.285,4.285,0,0,1,4.286-4.286,4.29,4.29,0,0,1,4.292,4.286,4.289,4.289,0,0,1-4.292,4.286,4.284,4.284,0,0,1-4.286-4.286" transform="translate(-6491.243 6988.223)"/>
        <path id="path10034" class="cls-3" d="M6522.786-6938.995a3.492,3.492,0,0,1,3.494-3.494,3.5,3.5,0,0,1,3.5,3.494,3.5,3.5,0,0,1-3.5,3.5,3.5,3.5,0,0,1-3.494-3.5" transform="translate(-6501.991 6984.209)"/>
        <path id="path10036" class="cls-4" d="M6545.121-6948.437a2.762,2.762,0,0,1,2.77-2.77,2.767,2.767,0,0,1,2.771,2.77,2.771,2.771,0,0,1-2.771,2.77,2.767,2.767,0,0,1-2.77-2.77" transform="translate(-6511.715 6987.951)"/>
      </g>
    </g>
  </g>
</svg>
