<svg id="Partner_logo02_modify" xmlns="http://www.w3.org/2000/svg" xmlns:xlink="http://www.w3.org/1999/xlink" width="140" height="65" viewBox="0 0 140 65">
  <defs>
    <linearGradient id="linear-gradient" y1="0.5" x2="1" y2="0.5" gradientUnits="objectBoundingBox">
      <stop offset="0" stop-color="#00bdd2"/>
      <stop offset="1" stop-color="#86dd25"/>
    </linearGradient>
  </defs>
  <rect id="사각형_2076" data-name="사각형 2076" width="140" height="65" fill="none"/>
  <g id="DAB__logo" data-name="DAB+_logo" transform="translate(20 3)">
    <g id="Background">
      <rect id="사각형_2747" data-name="사각형 2747" width="100" height="59" fill="rgba(0,0,0,0)"/>
    </g>
    <g id="Layer_1">
      <path id="패스_5206" data-name="패스 5206" d="M90.355.1,9.626,17.3C5.781,18.258.01,21.138.01,29.8h0v15.99c0,6.084,3.9,12.467,11.988,12.95H88.061C94.61,58.362,99.99,54.4,99.99,45.785h0V29.8c0-6.573-3.4-12.98-12.98-12.98H32.245L91.531,3.823A1.95,1.95,0,0,0,92.8,1.374h0A1.95,1.95,0,0,0,90.944.01h0A1.95,1.95,0,0,0,90.355.1M69.989,45.785V29.8A13.592,13.592,0,0,0,65.742,19.8H87.01c6.4,0,9.994,4.6,9.994,9.994h0v15.99c0,5.55-3.678,9.994-9.994,9.994H65.648c2.721-2.127,4.341-5.394,4.341-9.994m-20.953.328a8.825,8.825,0,0,1-2.67-6.448h0V25.177a2.006,2.006,0,0,1,.588-1.471h0a2.006,2.006,0,0,1,1.472-.588h0a2.043,2.043,0,0,1,1.466.582h0a1.982,1.982,0,0,1,.609,1.477h0v6.84a8.77,8.77,0,0,1,4.983-1.47h0a8.885,8.885,0,0,1,6.445,2.668h0a8.9,8.9,0,0,1,2,2.943h0a9.131,9.131,0,0,1,.669,3.507h0a8.76,8.76,0,0,1-2.673,6.45h0a8.889,8.889,0,0,1-6.445,2.668h0a8.824,8.824,0,0,1-6.448-2.67M19.149,25.177a2,2,0,0,1,.589-1.471h0a2,2,0,0,1,1.472-.588h0a2.041,2.041,0,0,1,1.465.582h0a1.981,1.981,0,0,1,.61,1.477h0V39.665a8.759,8.759,0,0,1-2.672,6.45h0a8.9,8.9,0,0,1-6.446,2.668h0a8.824,8.824,0,0,1-6.448-2.67h0a8.821,8.821,0,0,1-2.67-6.448h0a8.828,8.828,0,0,1,2.67-6.449h0a8.83,8.83,0,0,1,6.448-2.669h0a8.872,8.872,0,0,1,4.982,1.466h0Zm9.088,20.936a8.822,8.822,0,0,1-2.67-6.447h0a8.827,8.827,0,0,1,2.67-6.449h0a8.824,8.824,0,0,1,6.447-2.67h0a8.884,8.884,0,0,1,6.446,2.669h0a8.828,8.828,0,0,1,2.672,6.45h0v7.057a1.993,1.993,0,0,1-.6,1.456h0a1.989,1.989,0,0,1-1.455.6h0a2.012,2.012,0,0,1-1.473-.6h0a2.007,2.007,0,0,1-.538-.926h0a9.266,9.266,0,0,1-1.984,1.008h0a8.915,8.915,0,0,1-3.064.522h0a8.82,8.82,0,0,1-6.447-2.67M81.062,30.474v5.809H75.256a1.991,1.991,0,0,0-1.991,1.991h0a1.991,1.991,0,0,0,1.991,1.991h5.806v5.806a1.992,1.992,0,0,0,1.991,1.991h0a1.992,1.992,0,0,0,1.991-1.991h0V40.265H90.85a1.992,1.992,0,0,0,1.991-1.991h0a1.992,1.992,0,0,0-1.991-1.991H85.044V30.474a1.99,1.99,0,0,0-1.991-1.99h0a1.99,1.99,0,0,0-1.991,1.99m-48.334,4.6a5.051,5.051,0,0,0-1.577,1.072h0a5.13,5.13,0,0,0-1.061,1.587h0a4.859,4.859,0,0,0-.389,1.928h0a4.854,4.854,0,0,0,.389,1.927h0a5.123,5.123,0,0,0,1.061,1.588h0a5.061,5.061,0,0,0,1.577,1.072h0a5.011,5.011,0,0,0,3.9,0h0a5.071,5.071,0,0,0,1.587-1.081h0a5.129,5.129,0,0,0,1.067-1.588h0a4.793,4.793,0,0,0,.389-1.918h0a4.809,4.809,0,0,0-.389-1.919h0a5.149,5.149,0,0,0-1.068-1.588h0a5.085,5.085,0,0,0-1.586-1.08h0a4.816,4.816,0,0,0-1.939-.4h0a4.864,4.864,0,0,0-1.957.4m20.8,0a5.067,5.067,0,0,0-1.577,1.072h0a5.077,5.077,0,0,0-1.061,1.588h0a4.849,4.849,0,0,0-.389,1.926h0a4.845,4.845,0,0,0,.389,1.928h0a5.087,5.087,0,0,0,1.06,1.587h0a5.018,5.018,0,0,0,1.578,1.073h0a5.011,5.011,0,0,0,3.9,0h0a5.061,5.061,0,0,0,1.586-1.081h0a5.167,5.167,0,0,0,1.068-1.588h0a4.778,4.778,0,0,0,.389-1.919h0a4.775,4.775,0,0,0-.389-1.917h0a5.189,5.189,0,0,0-1.068-1.589h0a5.109,5.109,0,0,0-1.586-1.08h0a4.824,4.824,0,0,0-1.94-.4h0a4.863,4.863,0,0,0-1.956.4m-41.317,0a5.088,5.088,0,0,0-1.579,1.072h0a5.122,5.122,0,0,0-1.058,1.587h0a4.841,4.841,0,0,0-.39,1.927h0a4.828,4.828,0,0,0,.39,1.928h0a5.111,5.111,0,0,0,1.058,1.587h0a5.056,5.056,0,0,0,1.579,1.073h0a5.007,5.007,0,0,0,3.9,0h0a5.075,5.075,0,0,0,1.586-1.08h0a5.151,5.151,0,0,0,1.067-1.589h0a4.778,4.778,0,0,0,.389-1.919h0a4.783,4.783,0,0,0-.389-1.918h0a5.158,5.158,0,0,0-1.067-1.588h0a5.08,5.08,0,0,0-1.586-1.08h0a4.818,4.818,0,0,0-1.94-.4h0a4.859,4.859,0,0,0-1.956.4" fill="url(#linear-gradient)"/>
    </g>
  </g>
</svg>
