<svg id="Partner_logo03" xmlns="http://www.w3.org/2000/svg" xmlns:xlink="http://www.w3.org/1999/xlink" width="140" height="65" viewBox="0 0 140 65">
  <defs>
    <clipPath id="clip-path">
      <rect id="사각형_2076" data-name="사각형 2076" width="140" height="65" transform="translate(513 1910.982)" fill="#fff" stroke="#707070" stroke-width="1" opacity="0.5"/>
    </clipPath>
  </defs>
  <g id="마스크_그룹_34" data-name="마스크 그룹 34" transform="translate(-513 -1910.982)" clip-path="url(#clip-path)">
    <g id="layer1" transform="translate(-475.912 3078.396)">
      <g id="g10142" transform="translate(1016.913 -1166.091)">
        <path id="path10020" d="M6524.68-6982.483c3.979,0,4.909.2,6.812,1.425,2.415,1.58,3.789,4.438,3.789,7.913,0,3.508-1.433,6.479-3.789,7.938-2.048,1.238-2.919,1.409-6.812,1.409h-6.512v-18.686Zm.53,14.391c1.742,0,2.578-.23,3.2-.9a5.755,5.755,0,0,0,1.34-4.157,5.828,5.828,0,0,0-1.34-4.173c-.674-.675-1.459-.872-3.2-.872h-1.571v10.1Z" transform="translate(-6495.05 7006.811)" fill="#3760a7"/>
        <path id="path10022" d="M6551.249-6982.106l-.077,3.115c1.016-2.518,2.483-3.646,4.7-3.646a5.776,5.776,0,0,1,1.05.112v4.814a4.822,4.822,0,0,0-1.392-.153c-2.894,0-4.02,1.434-4.02,5.189v8.836h-5.3v-18.268Z" transform="translate(-6502.937 7006.854)" fill="#3760a7"/>
        <path id="path10024" d="M6571.291-6982.106l-.077,2.364a5.7,5.7,0,0,1,5.181-2.895,4.9,4.9,0,0,1,4.958,3.193,6.36,6.36,0,0,1,5.677-3.193c3.688,0,5.907,2.366,5.907,6.352v12.446h-5.19v-10.227c0-2.783-.785-3.91-2.638-3.91-1.98,0-3,1.349-3,3.91v10.227h-5.147v-10.38c-.042-2.518-.939-3.756-2.817-3.756-1.919,0-2.85,1.392-2.85,4.208v9.929h-5.2v-18.268Z" transform="translate(-6508.738 7006.854)" fill="#3760a7"/>
        <path id="path10026" d="M6516.886-7007.758a8.707,8.707,0,0,1,8.707-8.715,8.706,8.706,0,0,1,8.707,8.715,8.705,8.705,0,0,1-8.707,8.707,8.706,8.706,0,0,1-8.707-8.707" transform="translate(-6494.689 7016.473)" fill="#3760a7"/>
        <path id="path10028" d="M6493.258-6995.525a7.558,7.558,0,0,1,7.555-7.555,7.552,7.552,0,0,1,7.554,7.555,7.551,7.551,0,0,1-7.554,7.554,7.557,7.557,0,0,1-7.555-7.554" transform="translate(-6487.932 7012.677)" fill="#3760a7"/>
        <path id="path10030" d="M6485.927-6970.044a6.561,6.561,0,0,1,6.565-6.564,6.569,6.569,0,0,1,6.572,6.564,6.576,6.576,0,0,1-6.572,6.573,6.568,6.568,0,0,1-6.565-6.573" transform="translate(-6485.927 7005.189)" fill="#3760a7"/>
        <path id="path10032" d="M6498.312-6946.387a5.453,5.453,0,0,1,5.454-5.454,5.46,5.46,0,0,1,5.463,5.454,5.46,5.46,0,0,1-5.463,5.455,5.453,5.453,0,0,1-5.454-5.455" transform="translate(-6489.314 6998.145)" fill="#3760a7"/>
        <path id="path10034" d="M6522.785-6938.042a4.444,4.444,0,0,1,4.447-4.446,4.451,4.451,0,0,1,4.455,4.446,4.458,4.458,0,0,1-4.455,4.456,4.451,4.451,0,0,1-4.447-4.456" transform="translate(-6496.319 6995.586)" fill="#3760a7"/>
        <path id="path10036" d="M6545.12-6947.682a3.515,3.515,0,0,1,3.525-3.525,3.521,3.521,0,0,1,3.526,3.525,3.526,3.526,0,0,1-3.526,3.525,3.521,3.521,0,0,1-3.525-3.525" transform="translate(-6502.604 6997.971)" fill="#e43430"/>
      </g>
    </g>
  </g>
</svg>
