<svg xmlns="http://www.w3.org/2000/svg" xmlns:xlink="http://www.w3.org/1999/xlink" width="110" height="50" viewBox="0 0 110 50">
  <defs>
    <style>
      .cls-1 {
        fill: none;
      }

      .cls-2 {
        clip-path: url(#clip-path);
      }

      .cls-3 {
        fill: rgba(0,0,0,0);
      }

      .cls-4 {
        fill: url(#linear-gradient);
      }
    </style>
    <clipPath id="clip-path">
      <rect id="사각형_2076" data-name="사각형 2076" class="cls-1" width="110" height="50" transform="translate(516.568 1911.282)"/>
    </clipPath>
    <linearGradient id="linear-gradient" y1="0.5" x2="1" y2="0.5" gradientUnits="objectBoundingBox">
      <stop offset="0" stop-color="#00bdd2"/>
      <stop offset="1" stop-color="#86dd25"/>
    </linearGradient>
  </defs>
  <g id="마스크_그룹_34" data-name="마스크 그룹 34" class="cls-2" transform="translate(-516.568 -1911.282)">
    <g id="DAB__logo" data-name="DAB+_logo" transform="translate(530.568 1912.281)">
      <g id="Background">
        <rect id="사각형_2746" data-name="사각형 2746" class="cls-3" width="82.075" height="48.424"/>
      </g>
      <g id="Layer_1" transform="translate(0.008 0.008)">
        <path id="패스_5205" data-name="패스 5205" class="cls-4" d="M74.161.086,7.9,14.2C4.747,14.987.01,17.351.01,24.456h0V37.58c0,4.993,3.2,10.232,9.839,10.629H72.278c5.375-.306,9.791-3.561,9.791-10.629h0V24.456c0-5.395-2.791-10.653-10.653-10.653H26.467L75.126,3.14A1.6,1.6,0,0,0,76.17,1.13h0A1.6,1.6,0,0,0,74.644.01h0a1.6,1.6,0,0,0-.483.076M57.445,37.58V24.456a11.156,11.156,0,0,0-3.486-8.2H71.415a7.831,7.831,0,0,1,8.2,8.2h0V37.58c0,4.555-3.019,8.2-8.2,8.2H53.882c2.233-1.746,3.563-4.427,3.563-8.2m-17.2.269a7.243,7.243,0,0,1-2.191-5.292h0V20.666a1.647,1.647,0,0,1,.483-1.207h0a1.647,1.647,0,0,1,1.208-.483h0a1.677,1.677,0,0,1,1.2.478h0a1.627,1.627,0,0,1,.5,1.212h0V26.28a7.2,7.2,0,0,1,4.09-1.206h0a7.292,7.292,0,0,1,5.29,2.19h0a7.3,7.3,0,0,1,1.645,2.415h0a7.494,7.494,0,0,1,.549,2.878h0a7.19,7.19,0,0,1-2.194,5.294h0a7.3,7.3,0,0,1-5.29,2.19h0a7.242,7.242,0,0,1-5.292-2.191M15.719,20.666a1.643,1.643,0,0,1,.483-1.207h0a1.643,1.643,0,0,1,1.208-.483h0a1.675,1.675,0,0,1,1.2.478h0a1.626,1.626,0,0,1,.5,1.212h0V32.557a7.189,7.189,0,0,1-2.193,5.294h0a7.3,7.3,0,0,1-5.291,2.19h0a7.242,7.242,0,0,1-5.292-2.191h0a7.24,7.24,0,0,1-2.191-5.292h0a7.246,7.246,0,0,1,2.191-5.293h0a7.247,7.247,0,0,1,5.292-2.191h0a7.281,7.281,0,0,1,4.089,1.2h0Zm7.459,17.183a7.241,7.241,0,0,1-2.191-5.291h0a7.244,7.244,0,0,1,2.191-5.293h0a7.243,7.243,0,0,1,5.291-2.191h0a7.291,7.291,0,0,1,5.291,2.191h0a7.246,7.246,0,0,1,2.193,5.294h0V38.35a1.636,1.636,0,0,1-.5,1.2h0a1.633,1.633,0,0,1-1.194.5h0a1.651,1.651,0,0,1-1.209-.5h0a1.647,1.647,0,0,1-.442-.76h0a7.605,7.605,0,0,1-1.628.827h0a7.317,7.317,0,0,1-2.515.428h0a7.239,7.239,0,0,1-5.291-2.191M66.533,25.014v4.768H61.768a1.634,1.634,0,0,0-1.634,1.634h0a1.634,1.634,0,0,0,1.634,1.634h4.765v4.765a1.635,1.635,0,0,0,1.634,1.634h0A1.635,1.635,0,0,0,69.8,37.815h0V33.049h4.765A1.635,1.635,0,0,0,76.2,31.415h0a1.635,1.635,0,0,0-1.634-1.634H69.8V25.014a1.634,1.634,0,0,0-1.634-1.633h0a1.634,1.634,0,0,0-1.634,1.633m-39.67,3.779a4.145,4.145,0,0,0-1.294.88h0a4.211,4.211,0,0,0-.871,1.3h0a3.988,3.988,0,0,0-.319,1.582h0a3.984,3.984,0,0,0,.319,1.582h0a4.2,4.2,0,0,0,.871,1.3h0a4.154,4.154,0,0,0,1.294.88h0a4.113,4.113,0,0,0,3.2,0h0a4.162,4.162,0,0,0,1.3-.887h0a4.209,4.209,0,0,0,.876-1.3h0a3.934,3.934,0,0,0,.319-1.574h0a3.947,3.947,0,0,0-.319-1.575h0a4.226,4.226,0,0,0-.877-1.3h0a4.174,4.174,0,0,0-1.3-.886h0a3.953,3.953,0,0,0-1.591-.324h0a3.992,3.992,0,0,0-1.606.324m17.072,0a4.159,4.159,0,0,0-1.294.88h0a4.167,4.167,0,0,0-.871,1.3h0a3.98,3.98,0,0,0-.319,1.581h0a3.976,3.976,0,0,0,.319,1.582h0a4.175,4.175,0,0,0,.87,1.3h0a4.119,4.119,0,0,0,1.3.881h0a4.113,4.113,0,0,0,3.2,0h0a4.153,4.153,0,0,0,1.3-.887h0a4.241,4.241,0,0,0,.877-1.3h0a3.921,3.921,0,0,0,.319-1.575h0a3.919,3.919,0,0,0-.319-1.573h0a4.259,4.259,0,0,0-.877-1.3h0a4.193,4.193,0,0,0-1.3-.886h0a3.96,3.96,0,0,0-1.592-.324h0a3.991,3.991,0,0,0-1.605.324m-33.911,0a4.176,4.176,0,0,0-1.3.88h0a4.2,4.2,0,0,0-.868,1.3h0a3.973,3.973,0,0,0-.32,1.582h0a3.963,3.963,0,0,0,.32,1.582h0a4.2,4.2,0,0,0,.868,1.3h0a4.15,4.15,0,0,0,1.3.881h0a4.109,4.109,0,0,0,3.2,0h0a4.165,4.165,0,0,0,1.3-.886h0a4.228,4.228,0,0,0,.876-1.3h0a3.921,3.921,0,0,0,.319-1.575h0a3.926,3.926,0,0,0-.319-1.574h0a4.234,4.234,0,0,0-.876-1.3h0a4.169,4.169,0,0,0-1.3-.886h0a3.954,3.954,0,0,0-1.592-.324h0a3.988,3.988,0,0,0-1.605.324" transform="translate(-0.01 -0.01)"/>
      </g>
    </g>
  </g>
</svg>
